M48
;Layer_Color=9474304
;FILE_FORMAT=2:5
INCH,LZ
;TYPE=PLATED
T1F00S00C0.01181
T3F00S00C0.03543
T5F00S00C0.04331
;TYPE=NON_PLATED
T6F00S00C0.09409
T7F00S00C0.12598
T8F00S00C0.13583
%
T01
X0000394Y0
X023934Y0084186
X0256193Y0147802
X0279325Y016007
Y0169193
X0286821Y0156364
X027976Y0124606
X027875Y0190719
X0240391Y0187106
X0231222
Y017687
Y0169193
X0236221Y0166634
X0331606Y0179527
X0186829Y0186614
X0192126Y0198606
X0187625Y0207224
X0187303Y0165673
X0183551Y0146197
X0176673Y0147539
X0179429Y0140059
X0183551Y0132918
Y0120706
Y0107608
Y0100681
X0164936
Y0107608
X0143601
Y0100681
X0121924
Y0107608
X0121402Y0119882
X0124328
X0118477
X0115551
X0117358Y0127362
X0120474
X012331
X012415Y01429
X0121924Y0158285
X0115682
X0107974Y0156004
Y0152067
X0103347
Y0147244
X0107974
X010155Y0158285
Y0169075
X0111396
X0121924
X0132757
X0143601
Y0158285
X0136914
X0129257
X0149606Y015689
X0154331Y0152461
X0159646Y0147047
X0164936Y014181
X0168405Y0137697
X015748Y0135433
X0164936Y0158285
Y0169075
X0154581
X0159547Y0163878
X017126Y0152756
X0172548Y0179355
X0143143Y019085
X013276Y0186702
X0090396Y0169075
X0082724
Y0163014
X0065855Y0158285
Y0169075
X007313Y0130905
Y0127482
Y0124059
X0077442
Y0127482
Y0130905
X0082724Y0107608
Y0100681
X0065855
Y0107608
X010155
Y0100681
X0205941Y0147802
X0048252Y0107608
Y0100681
X0089567Y0221372
Y0236838
Y0250029
Y0264043
Y0281775
Y028983
X0099311
Y0302669
X0114337Y0300422
X0118852
Y0293652
X0114337
Y0286881
X0118852
X0133352Y028983
X0143204
Y0302669
X0133352
X0205941
Y0281775
Y0264173
X0187625Y0264043
Y0250029
Y0221503
X0151969Y0227038
X0118852Y0223622
X0118888Y0219461
X0118852Y0215301
X0114337
Y0219461
Y0223622
X0217697Y0229518
X0221949Y0247023
X0224526Y0244911
X0227067Y0247023
X0239049Y0250029
Y0264043
X0223787
Y0281775
X0239049
X0256193
X0273032
X0273023Y0264043
X0286821
Y025016
Y0236968
X0273023Y0236838
Y0250029
X0256193
Y0264043
X0242217Y0229518
X0273023Y0221372
X0286821Y0221503
X0291054Y0213492
X0303062
Y0236838
Y0250029
X0319107Y0236838
Y0221372
X03257Y0214777
X0223787Y0302669
T03
X0014016Y0115039
Y0125039
Y0135039
Y0145039
Y0155039
X0024016
Y0145039
Y0135039
Y0125039
Y0115039
Y02131
Y0223099
X0014016
Y02131
T05
X0019488Y0267244
Y0277244
T06
X0243358Y0047165
X0093012Y0329213
X0267717
T07
X0019685Y0019685
X0334646
X0019685Y0307087
X0334646Y0374016
T08
X0267717Y0079528
X0180366
X0093012
X0156004Y029685
X0243358
X0330709
M30
