G04*
G04 #@! TF.GenerationSoftware,Altium Limited,Altium Designer,21.1.1 (26)*
G04*
G04 Layer_Color=255*
%FSLAX25Y25*%
%MOIN*%
G70*
G04*
G04 #@! TF.SameCoordinates,5AD375DC-C50E-4051-8569-BF36B36DD858*
G04*
G04*
G04 #@! TF.FilePolarity,Positive*
G04*
G01*
G75*
%ADD13C,0.00591*%
%ADD16C,0.05000*%
%ADD17R,0.27559X0.27559*%
%ADD18R,0.05906X0.09843*%
%ADD19R,0.05315X0.03740*%
%ADD20R,0.03740X0.05315*%
%ADD21R,0.03543X0.02559*%
%ADD22R,0.05906X0.04724*%
%ADD23R,0.04724X0.05906*%
%ADD24R,0.08661X0.10630*%
G04:AMPARAMS|DCode=25|XSize=61.81mil|YSize=16.14mil|CornerRadius=2.02mil|HoleSize=0mil|Usage=FLASHONLY|Rotation=180.000|XOffset=0mil|YOffset=0mil|HoleType=Round|Shape=RoundedRectangle|*
%AMROUNDEDRECTD25*
21,1,0.06181,0.01211,0,0,180.0*
21,1,0.05778,0.01614,0,0,180.0*
1,1,0.00404,-0.02889,0.00605*
1,1,0.00404,0.02889,0.00605*
1,1,0.00404,0.02889,-0.00605*
1,1,0.00404,-0.02889,-0.00605*
%
%ADD25ROUNDEDRECTD25*%
%ADD26R,0.04134X0.06693*%
%ADD27R,0.05118X0.11024*%
%ADD28R,0.06693X0.04134*%
%ADD29R,0.02205X0.02717*%
%ADD30R,0.04331X0.02362*%
%ADD31R,0.07087X0.04528*%
%ADD65R,0.27559X0.11024*%
%ADD66C,0.05906*%
%ADD67R,0.05906X0.05906*%
%ADD68C,0.06000*%
%ADD69O,0.08858X0.17717*%
%ADD70O,0.19685X0.09843*%
%ADD71O,0.17717X0.08858*%
%ADD72C,0.07087*%
%ADD73C,0.09409*%
%ADD74C,0.13583*%
D13*
X354331Y374016D02*
G03*
X334646Y393701I-19685J0D01*
G01*
Y0D02*
G03*
X354331Y19685I0J19685D01*
G01*
X19685Y393701D02*
G03*
X0Y374016I0J-19685D01*
G01*
X0Y19685D02*
G03*
X19685Y0I19685J0D01*
G01*
X354331Y19685D02*
Y374016D01*
X19685Y0D02*
X334646D01*
X0Y19685D02*
Y374016D01*
X19685Y393701D02*
X334646D01*
D16*
X279921Y150689D02*
D03*
X162927Y179232D02*
D03*
X265526Y227854D02*
D03*
X199682Y202658D02*
D03*
X139115Y372835D02*
D03*
D17*
X142913Y263779D02*
D03*
X110630D02*
D03*
D18*
X133858Y236614D02*
D03*
X151969D02*
D03*
X119685D02*
D03*
X101575D02*
D03*
D19*
X166382Y123622D02*
D03*
Y130905D02*
D03*
X187303Y170669D02*
D03*
Y177953D02*
D03*
X198327D02*
D03*
Y170669D02*
D03*
X267538Y143514D02*
D03*
X267538Y150798D02*
D03*
X229906Y224698D02*
D03*
Y217414D02*
D03*
X178285Y217414D02*
D03*
Y210131D02*
D03*
Y233661D02*
D03*
X178285Y226378D02*
D03*
X205629Y224698D02*
D03*
Y217414D02*
D03*
X174059Y130905D02*
D03*
Y123622D02*
D03*
D20*
X150197Y129232D02*
D03*
X157480D02*
D03*
X191929Y186614D02*
D03*
X199213D02*
D03*
X239862Y156309D02*
D03*
X232579D02*
D03*
X321763Y191142D02*
D03*
X314479D02*
D03*
X321763Y168012D02*
D03*
X314479D02*
D03*
X94291Y179134D02*
D03*
X101575Y179134D02*
D03*
X129864Y203665D02*
D03*
X137147Y203665D02*
D03*
X101575Y203046D02*
D03*
X94291D02*
D03*
X321763Y144390D02*
D03*
X314479Y144390D02*
D03*
X101870Y223622D02*
D03*
X109153D02*
D03*
D21*
X336527Y203150D02*
D03*
Y197244D02*
D03*
Y179527D02*
D03*
Y173622D02*
D03*
Y156004D02*
D03*
Y150098D02*
D03*
D22*
X108401Y123622D02*
D03*
Y130709D02*
D03*
X119685Y203665D02*
D03*
Y196578D02*
D03*
X291054Y207480D02*
D03*
Y200394D02*
D03*
X303062Y207480D02*
D03*
Y200394D02*
D03*
X217697Y224501D02*
D03*
Y217414D02*
D03*
X242217Y224501D02*
D03*
Y217414D02*
D03*
X303062Y191142D02*
D03*
Y184055D02*
D03*
Y163287D02*
D03*
Y156201D02*
D03*
D23*
X96755Y156494D02*
D03*
X89668D02*
D03*
X96755Y147933D02*
D03*
X89668D02*
D03*
X130118Y142900D02*
D03*
X137205D02*
D03*
X119685Y186702D02*
D03*
X126772D02*
D03*
X267545Y202795D02*
D03*
X274632D02*
D03*
X267538Y160070D02*
D03*
X274624D02*
D03*
Y169193D02*
D03*
X267538D02*
D03*
D24*
X65796Y147441D02*
D03*
Y127362D02*
D03*
D25*
X225315Y166634D02*
D03*
Y169193D02*
D03*
Y171752D02*
D03*
Y174311D02*
D03*
Y176870D02*
D03*
Y179429D02*
D03*
Y181988D02*
D03*
Y184547D02*
D03*
Y187106D02*
D03*
Y189665D02*
D03*
Y192224D02*
D03*
Y194783D02*
D03*
X247913D02*
D03*
Y192224D02*
D03*
Y189665D02*
D03*
Y187106D02*
D03*
Y184547D02*
D03*
Y181988D02*
D03*
Y179429D02*
D03*
Y176870D02*
D03*
Y174311D02*
D03*
Y171752D02*
D03*
Y169193D02*
D03*
Y166634D02*
D03*
D26*
X314479Y156004D02*
D03*
X325700D02*
D03*
X314479Y179527D02*
D03*
X325700D02*
D03*
X314479Y203150D02*
D03*
X325700D02*
D03*
D27*
X205629Y236614D02*
D03*
X224526D02*
D03*
D28*
X254035Y216633D02*
D03*
Y227854D02*
D03*
D29*
X94291Y190795D02*
D03*
X103898D02*
D03*
X101496Y214173D02*
D03*
X111102D02*
D03*
D30*
X137205Y131102D02*
D03*
Y127362D02*
D03*
Y123622D02*
D03*
X126575D02*
D03*
Y127362D02*
D03*
Y131102D02*
D03*
D31*
X99289Y123622D02*
D03*
Y135433D02*
D03*
X89668Y123622D02*
D03*
Y135433D02*
D03*
D65*
X53150Y336614D02*
D03*
Y356299D02*
D03*
D66*
X24016Y223099D02*
D03*
X14016D02*
D03*
X24016Y213100D02*
D03*
Y155039D02*
D03*
X14016D02*
D03*
X24016Y145039D02*
D03*
X14016D02*
D03*
X24016Y135039D02*
D03*
X14016D02*
D03*
X24016Y125039D02*
D03*
X14016D02*
D03*
X24016Y115039D02*
D03*
D67*
X14016Y213100D02*
D03*
Y115039D02*
D03*
D68*
X334646Y374016D02*
D03*
Y19685D02*
D03*
X19685Y307087D02*
D03*
Y19685D02*
D03*
D69*
X181890Y361024D02*
D03*
D70*
X163386Y349213D02*
D03*
D71*
Y372835D02*
D03*
D72*
X19488Y267244D02*
D03*
Y277244D02*
D03*
D73*
X93012Y329213D02*
D03*
X267717D02*
D03*
X243358Y47165D02*
D03*
D74*
X93012Y79528D02*
D03*
X156004Y296850D02*
D03*
X267717Y79528D02*
D03*
X330709Y296850D02*
D03*
X243358D02*
D03*
X180366Y79528D02*
D03*
M02*
