G04*
G04 #@! TF.GenerationSoftware,Altium Limited,Altium Designer,21.1.1 (26)*
G04*
G04 Layer_Physical_Order=2*
G04 Layer_Color=16711680*
%FSLAX25Y25*%
%MOIN*%
G70*
G04*
G04 #@! TF.SameCoordinates,5AD375DC-C50E-4051-8569-BF36B36DD858*
G04*
G04*
G04 #@! TF.FilePolarity,Positive*
G04*
G01*
G75*
%ADD13C,0.00591*%
%ADD16C,0.05000*%
%ADD19R,0.05315X0.03740*%
%ADD21R,0.03543X0.02559*%
%ADD59C,0.01575*%
%ADD60C,0.03937*%
%ADD61C,0.02362*%
%ADD62C,0.12697*%
%ADD63C,0.11811*%
%ADD65R,0.27559X0.11024*%
%ADD66C,0.05906*%
%ADD67R,0.05906X0.05906*%
%ADD68C,0.06000*%
%ADD69O,0.08858X0.17717*%
%ADD70O,0.19685X0.09843*%
%ADD71O,0.17717X0.08858*%
%ADD72C,0.07087*%
%ADD73C,0.09409*%
%ADD74C,0.13583*%
%ADD75C,0.01968*%
%ADD76C,0.02362*%
%ADD77R,0.25472X0.29370*%
%ADD78C,0.15748*%
G36*
X126341Y367566D02*
X126204Y367327D01*
X126084Y367070D01*
X125979Y366793D01*
X125890Y366498D01*
X125818Y366183D01*
X125761Y365851D01*
X125721Y365499D01*
X125689Y364739D01*
X123327D01*
X123319Y365128D01*
X123254Y365851D01*
X123198Y366183D01*
X123125Y366498D01*
X123037Y366793D01*
X122932Y367070D01*
X122811Y367327D01*
X122675Y367566D01*
X122521Y367787D01*
X126494D01*
X126341Y367566D01*
D02*
G37*
G36*
X188189Y369971D02*
Y356210D01*
X175591Y356349D01*
Y369925D01*
X177122Y371457D01*
X186704D01*
X188189Y369971D01*
D02*
G37*
G36*
X213058Y366998D02*
X213849D01*
X213696Y366778D01*
X213559Y366539D01*
X213438Y366281D01*
X213333Y366004D01*
X213245Y365709D01*
X213172Y365395D01*
X213116Y365062D01*
X213108Y364997D01*
X213438Y360585D01*
X213639Y359234D01*
X213799Y359126D01*
X214000Y359055D01*
X214224Y359031D01*
X213669D01*
X213746Y358513D01*
X214141Y356624D01*
X214624Y354919D01*
X215195Y353398D01*
X215853Y352060D01*
X216599Y350905D01*
X217433Y349934D01*
X206291D01*
X207125Y350905D01*
X207871Y352060D01*
X208530Y353398D01*
X209101Y354919D01*
X209584Y356624D01*
X209979Y358513D01*
X210055Y359031D01*
X209500D01*
X209724Y359055D01*
X209925Y359126D01*
X210086Y359234D01*
X210286Y360585D01*
X210615Y364987D01*
X210609Y365062D01*
X210552Y365395D01*
X210480Y365709D01*
X210391Y366004D01*
X210286Y366281D01*
X210166Y366539D01*
X210029Y366778D01*
X209876Y366998D01*
X210666D01*
X210681Y367903D01*
X213043D01*
X213058Y366998D01*
D02*
G37*
G36*
X137280Y359055D02*
X139923Y356412D01*
X170163Y356412D01*
X173721Y352854D01*
X173720Y345854D01*
X170180Y342314D01*
X150066Y342314D01*
X137280Y329528D01*
X111811D01*
Y347658D01*
X108583Y350886D01*
X39378D01*
Y361713D01*
X137280D01*
Y359055D01*
D02*
G37*
G36*
X286488Y329697D02*
X286331Y330989D01*
X285858Y332145D01*
X285071Y333165D01*
X283969Y334048D01*
X282551Y334796D01*
X280819Y335408D01*
X278772Y335884D01*
X276410Y336224D01*
X273732Y336428D01*
X270740Y336496D01*
Y352244D01*
X273732Y352312D01*
X276410Y352516D01*
X278772Y352856D01*
X280819Y353332D01*
X282551Y353944D01*
X283969Y354692D01*
X285071Y355576D01*
X285858Y356595D01*
X286331Y357751D01*
X286488Y359043D01*
Y329697D01*
D02*
G37*
G36*
X224744Y357751D02*
X225216Y356595D01*
X226004Y355576D01*
X227106Y354692D01*
X228523Y353944D01*
X230256Y353332D01*
X232303Y352856D01*
X234665Y352516D01*
X237342Y352312D01*
X240334Y352244D01*
Y336496D01*
X237342Y336428D01*
X234665Y336224D01*
X232303Y335884D01*
X230256Y335408D01*
X228523Y334796D01*
X227106Y334048D01*
X226004Y333165D01*
X225216Y332145D01*
X224744Y330989D01*
X224586Y329697D01*
Y359043D01*
X224744Y357751D01*
D02*
G37*
G36*
X304099Y337978D02*
X303487Y336939D01*
X302946Y335688D01*
X302478Y334225D01*
X302082Y332550D01*
X301758Y330664D01*
X301664Y329709D01*
X303150D01*
X302776Y329670D01*
X302441Y329551D01*
X302146Y329354D01*
X301890Y329077D01*
X301673Y328722D01*
X301534Y328379D01*
X301325Y326255D01*
X301217Y323732D01*
X301181Y320998D01*
X297244D01*
X297208Y323732D01*
X296835Y328518D01*
X296752Y328722D01*
X296535Y329077D01*
X296280Y329354D01*
X295984Y329551D01*
X295650Y329670D01*
X295276Y329709D01*
X296742D01*
X296668Y330664D01*
X296343Y332550D01*
X295947Y334225D01*
X295479Y335688D01*
X294938Y336939D01*
X294326Y337978D01*
X293641Y338806D01*
X304784D01*
X304099Y337978D01*
D02*
G37*
G36*
X349311Y297146D02*
Y120177D01*
X346063Y116929D01*
X271752D01*
X256440Y132241D01*
X211946Y176735D01*
Y236991D01*
X214461Y239507D01*
X227067D01*
X228533Y239651D01*
X229943Y240079D01*
X231243Y240774D01*
X232382Y241708D01*
X233317Y242847D01*
X234011Y244147D01*
X234439Y245557D01*
X234583Y247023D01*
X234439Y248490D01*
X234011Y249900D01*
X233317Y251199D01*
X232382Y252338D01*
X231243Y253273D01*
X229943Y253968D01*
X228533Y254395D01*
X227067Y254540D01*
X211348D01*
X211348Y254540D01*
X209881Y254395D01*
X208471Y253968D01*
X207172Y253273D01*
X206033Y252338D01*
X199114Y245420D01*
X198179Y244281D01*
X197485Y242981D01*
X197057Y241571D01*
X196913Y240105D01*
Y173622D01*
X197057Y172156D01*
X197485Y170746D01*
X198179Y169446D01*
X199114Y168307D01*
X249401Y118020D01*
X248949Y116929D01*
X226287D01*
X210975Y132241D01*
X197490D01*
X192838Y136892D01*
Y148228D01*
X192838Y148228D01*
X192746Y148689D01*
X192485Y149080D01*
X192485Y149080D01*
X169223Y172343D01*
X169159Y172407D01*
X168768Y172668D01*
X168307Y172759D01*
X168307Y172759D01*
X164045D01*
D01*
Y177741D01*
X173622Y187318D01*
X174557Y188457D01*
X175251Y189757D01*
X175679Y191167D01*
X175824Y192633D01*
Y263816D01*
X185426Y273418D01*
X186313Y273892D01*
X187520Y274882D01*
X188510Y276089D01*
X189245Y277465D01*
X189698Y278959D01*
X189851Y280512D01*
Y296850D01*
Y310531D01*
X295639D01*
Y296850D01*
Y274748D01*
X295760Y273823D01*
X296117Y272961D01*
X296686Y272220D01*
X322126Y246780D01*
Y214777D01*
X322248Y213852D01*
X322605Y212990D01*
X323173Y212250D01*
X323913Y211682D01*
X324775Y211325D01*
X325700Y211203D01*
X326625Y211325D01*
X327487Y211682D01*
X328227Y212250D01*
X328795Y212990D01*
X329152Y213852D01*
X329274Y214777D01*
Y248260D01*
X329152Y249185D01*
X328795Y250047D01*
X328227Y250787D01*
X302786Y276228D01*
Y296850D01*
Y310531D01*
X335925D01*
X349311Y297146D01*
D02*
G37*
G36*
X16153Y210135D02*
X15953Y210064D01*
X15776Y209946D01*
X15622Y209781D01*
X15492Y209568D01*
X15386Y209308D01*
X15303Y209001D01*
X15244Y208647D01*
X15209Y208245D01*
X15197Y207797D01*
X12835D01*
X12823Y208245D01*
X12787Y208647D01*
X12728Y209001D01*
X12646Y209308D01*
X12539Y209568D01*
X12409Y209781D01*
X12256Y209946D01*
X12079Y210064D01*
X11878Y210135D01*
X11654Y210159D01*
X16378D01*
X16153Y210135D01*
D02*
G37*
G36*
X25209Y200581D02*
X25244Y200178D01*
X25303Y199822D01*
X25386Y199513D01*
X25492Y199252D01*
X25622Y199038D01*
X25776Y198872D01*
X25953Y198753D01*
X26153Y198682D01*
X26378Y198658D01*
X21654D01*
X21878Y198682D01*
X22079Y198753D01*
X22256Y198872D01*
X22410Y199038D01*
X22539Y199252D01*
X22646Y199513D01*
X22728Y199822D01*
X22787Y200178D01*
X22823Y200581D01*
X22835Y201032D01*
X25197D01*
X25209Y200581D01*
D02*
G37*
G36*
X15203Y198664D02*
X15289Y197601D01*
X15341Y197342D01*
X15405Y197129D01*
X15480Y196964D01*
X15567Y196846D01*
X15665Y196775D01*
X15775Y196751D01*
X12256D01*
X12366Y196775D01*
X12464Y196846D01*
X12551Y196964D01*
X12626Y197129D01*
X12690Y197342D01*
X12742Y197601D01*
X12783Y197908D01*
X12829Y198664D01*
X12835Y199113D01*
X15197D01*
X15203Y198664D01*
D02*
G37*
G36*
X15799Y190824D02*
X15870Y190806D01*
X15988Y190789D01*
X16153Y190775D01*
X17287Y190739D01*
X18138Y190735D01*
Y188372D01*
X15775Y188311D01*
Y190846D01*
X15799Y190824D01*
D02*
G37*
G36*
X21370Y187671D02*
X21347Y187804D01*
X21276Y187923D01*
X21158Y188029D01*
X20992Y188120D01*
X20780Y188197D01*
X20520Y188260D01*
X20213Y188309D01*
X19859Y188344D01*
X19008Y188372D01*
Y190735D01*
X19457Y190741D01*
X20213Y190793D01*
X20520Y190839D01*
X20780Y190898D01*
X20992Y190969D01*
X21158Y191054D01*
X21276Y191152D01*
X21347Y191263D01*
X21370Y191387D01*
Y187671D01*
D02*
G37*
G36*
X173928Y296850D02*
Y283180D01*
X162992Y272244D01*
X162057Y271105D01*
X161363Y269806D01*
X160935Y268395D01*
X160791Y266929D01*
Y195747D01*
X151213Y186169D01*
X141636Y176592D01*
X121653D01*
X120187Y176447D01*
X118777Y176020D01*
X117478Y175325D01*
X116339Y174390D01*
X114708Y172759D01*
X83070D01*
D01*
X82776D01*
Y297146D01*
X97441Y310531D01*
X173928D01*
Y296850D01*
D02*
G37*
G36*
X191634Y148228D02*
Y101673D01*
X187008Y97047D01*
X27854D01*
Y101038D01*
X26795D01*
Y111973D01*
X27324Y112501D01*
X27868Y113444D01*
X28150Y114495D01*
Y115584D01*
X27868Y116635D01*
X27324Y117578D01*
X26554Y118347D01*
X25611Y118892D01*
X24560Y119173D01*
X23471D01*
X22420Y118892D01*
X21477Y118347D01*
X20708Y117578D01*
X20164Y116635D01*
X19882Y115584D01*
Y114495D01*
X20164Y113444D01*
X20708Y112501D01*
X21236Y111973D01*
Y101038D01*
X20177D01*
Y97047D01*
X10971D01*
X8961Y99058D01*
X9041Y99139D01*
X9041Y171555D01*
X33835D01*
Y121038D01*
X33835Y121038D01*
X33927Y120577D01*
X34188Y120187D01*
X41447Y112928D01*
X41837Y112667D01*
X42298Y112575D01*
X42298Y112575D01*
X124150D01*
X124150Y112575D01*
X124611Y112667D01*
X125002Y112928D01*
X125002Y112928D01*
X128329Y116255D01*
X128590Y116646D01*
X128681Y117102D01*
X153146D01*
X153865Y117197D01*
X154536Y117475D01*
X155111Y117916D01*
X159446Y122251D01*
X159888Y122827D01*
X160165Y123497D01*
X160260Y124216D01*
Y135433D01*
X160165Y136153D01*
X159888Y136823D01*
X159446Y137399D01*
X158870Y137840D01*
X158200Y138118D01*
X157480Y138213D01*
X156761Y138118D01*
X156090Y137840D01*
X155515Y137399D01*
X155073Y136823D01*
X154795Y136153D01*
X154701Y135433D01*
Y125368D01*
X151994Y122662D01*
X127557D01*
X127221Y122997D01*
X127174Y123477D01*
X127462Y123764D01*
X127462Y123764D01*
X127723Y124155D01*
X127814Y124616D01*
X127814Y124616D01*
Y130349D01*
X127814Y130349D01*
X127723Y130810D01*
X127462Y131201D01*
X127462Y131201D01*
X126905Y131757D01*
X126905Y131757D01*
X126515Y132018D01*
X126054Y132110D01*
X126054Y132110D01*
X121929D01*
Y139358D01*
X122300Y139729D01*
X125252D01*
X125252Y139729D01*
X125713Y139821D01*
X126103Y140082D01*
X126103Y140082D01*
X126905Y140883D01*
X127166Y141274D01*
X127258Y141735D01*
X127258Y141735D01*
Y144068D01*
X127258Y144068D01*
X127166Y144529D01*
X126905Y144920D01*
X126905Y144920D01*
X126103Y145722D01*
X125713Y145983D01*
X125252Y146074D01*
X125252Y146074D01*
X117445D01*
X117445Y146074D01*
X116984Y145983D01*
X116594Y145722D01*
X115441Y144569D01*
X115415Y144552D01*
X115154Y144161D01*
X115062Y143700D01*
Y132110D01*
X112491D01*
X111072Y133529D01*
X110682Y133790D01*
X110221Y133881D01*
X110221Y133881D01*
X71204Y133881D01*
X70744Y133790D01*
X70353Y133529D01*
X70353Y133529D01*
X69449Y132625D01*
X69188Y132234D01*
X69096Y131773D01*
X69096Y131773D01*
Y122951D01*
X69096Y122951D01*
X69188Y122490D01*
X69449Y122100D01*
X69449Y122100D01*
X70353Y121196D01*
X70353Y121196D01*
X70652Y120996D01*
X70591Y120549D01*
X70569Y120496D01*
X50424D01*
X49383Y121537D01*
Y171555D01*
X168307Y171555D01*
X191634Y148228D01*
D02*
G37*
G36*
X126054Y144068D02*
Y141735D01*
X125252Y140933D01*
X121801D01*
X120725Y139857D01*
Y130905D01*
X126054D01*
X126610Y130349D01*
Y124616D01*
X126054Y124059D01*
X112249Y124059D01*
X110236Y122047D01*
X71204D01*
X70300Y122951D01*
Y131773D01*
X71204Y132677D01*
X110221Y132677D01*
X111993Y130905D01*
X116267D01*
Y143700D01*
X116275D01*
X117445Y144870D01*
X125252D01*
X126054Y144068D01*
D02*
G37*
G36*
X48179Y216880D02*
Y121038D01*
X49926Y119291D01*
X110990D01*
X113845Y122146D01*
X126370D01*
X127477Y121038D01*
Y117107D01*
X124150Y113779D01*
X42298D01*
X35039Y121038D01*
Y205446D01*
X32296Y208189D01*
X20374D01*
X20374Y225492D01*
X22792Y227910D01*
X37149D01*
X48179Y216880D01*
D02*
G37*
G36*
X25209Y101758D02*
X25244Y101356D01*
X25303Y101002D01*
X25386Y100695D01*
X25492Y100435D01*
X25622Y100222D01*
X25776Y100057D01*
X25953Y99939D01*
X26153Y99868D01*
X26378Y99844D01*
X21654D01*
X21878Y99868D01*
X22079Y99939D01*
X22256Y100057D01*
X22410Y100222D01*
X22539Y100435D01*
X22646Y100695D01*
X22728Y101002D01*
X22787Y101356D01*
X22823Y101758D01*
X22835Y102207D01*
X25197D01*
X25209Y101758D01*
D02*
G37*
G36*
X15799Y91954D02*
X15870Y91939D01*
X15988Y91926D01*
X16366Y91906D01*
X18138Y91884D01*
Y89522D01*
X15775Y89435D01*
Y91970D01*
X15799Y91954D01*
D02*
G37*
G36*
X21370Y88845D02*
X21347Y88973D01*
X21276Y89089D01*
X21158Y89190D01*
X20992Y89278D01*
X20780Y89353D01*
X20520Y89413D01*
X20213Y89461D01*
X19859Y89495D01*
X19008Y89522D01*
Y91884D01*
X19457Y91891D01*
X20213Y91945D01*
X20520Y91992D01*
X20780Y92053D01*
X20992Y92128D01*
X21158Y92216D01*
X21276Y92317D01*
X21347Y92432D01*
X21370Y92561D01*
Y88845D01*
D02*
G37*
G36*
X305177Y56246D02*
X305354Y54236D01*
X305650Y52462D01*
X306063Y50925D01*
X306594Y49625D01*
X307244Y48561D01*
X308012Y47733D01*
X308898Y47142D01*
X309902Y46787D01*
X311024Y46669D01*
X287402D01*
X288524Y46787D01*
X289528Y47142D01*
X290413Y47733D01*
X291181Y48561D01*
X291831Y49625D01*
X292362Y50925D01*
X292776Y52462D01*
X293071Y54236D01*
X293248Y56246D01*
X293307Y58492D01*
X305118D01*
X305177Y56246D01*
D02*
G37*
G36*
X213867Y52646D02*
X214240Y47860D01*
X214323Y47656D01*
X214539Y47301D01*
X214795Y47024D01*
X215090Y46827D01*
X215425Y46708D01*
X215799Y46669D01*
X214333D01*
X214407Y45714D01*
X214731Y43828D01*
X215128Y42153D01*
X215596Y40690D01*
X216136Y39439D01*
X216749Y38400D01*
X217433Y37572D01*
X206291D01*
X206976Y38400D01*
X207588Y39439D01*
X208128Y40690D01*
X208597Y42153D01*
X208993Y43828D01*
X209317Y45714D01*
X209411Y46669D01*
X207925D01*
X208299Y46708D01*
X208634Y46827D01*
X208929Y47024D01*
X209185Y47301D01*
X209402Y47656D01*
X209541Y47999D01*
X209750Y50124D01*
X209858Y52646D01*
X209894Y55380D01*
X213831D01*
X213867Y52646D01*
D02*
G37*
G36*
X199138Y17335D02*
X198980Y18627D01*
X198508Y19782D01*
X197721Y20802D01*
X196618Y21686D01*
X195201Y22434D01*
X193469Y23046D01*
X191421Y23522D01*
X189059Y23862D01*
X186382Y24066D01*
X183390Y24134D01*
Y39882D01*
X186382Y39950D01*
X189059Y40154D01*
X191421Y40494D01*
X193469Y40970D01*
X195201Y41582D01*
X196618Y42330D01*
X197721Y43213D01*
X198508Y44233D01*
X198980Y45389D01*
X199138Y46681D01*
Y17335D01*
D02*
G37*
G36*
X137390Y45389D02*
X137862Y44233D01*
X138649Y43213D01*
X139752Y42330D01*
X141169Y41582D01*
X142901Y40970D01*
X144949Y40494D01*
X147311Y40154D01*
X149988Y39950D01*
X152980Y39882D01*
Y24134D01*
X149988Y24066D01*
X147311Y23862D01*
X144949Y23522D01*
X142901Y23046D01*
X141169Y22434D01*
X139752Y21686D01*
X138649Y20802D01*
X137862Y19782D01*
X137390Y18627D01*
X137232Y17335D01*
Y46681D01*
X137390Y45389D01*
D02*
G37*
G36*
X302971Y27304D02*
X302595Y26598D01*
X302264Y25717D01*
X301977Y24660D01*
X301734Y23427D01*
X301535Y22019D01*
X301270Y18675D01*
X301240Y17347D01*
X303150D01*
X302776Y17307D01*
X302441Y17189D01*
X302146Y16992D01*
X301890Y16715D01*
X301673Y16360D01*
X301496Y15925D01*
X301358Y15412D01*
X301260Y14819D01*
X301201Y14148D01*
X301181Y13398D01*
X297244D01*
X297224Y14148D01*
X297165Y14819D01*
X297067Y15412D01*
X296929Y15925D01*
X296752Y16360D01*
X296535Y16715D01*
X296280Y16992D01*
X295984Y17189D01*
X295650Y17307D01*
X295276Y17347D01*
X297174D01*
X296692Y23427D01*
X296448Y24660D01*
X296161Y25717D01*
X295830Y26598D01*
X295454Y27304D01*
X295034Y27835D01*
X303391D01*
X302971Y27304D01*
D02*
G37*
G36*
X217094Y25909D02*
X216409Y24813D01*
X215805Y23618D01*
X215281Y22325D01*
X214838Y20932D01*
X214475Y19439D01*
X214193Y17848D01*
X214134Y17347D01*
X215799D01*
X215425Y17307D01*
X215090Y17189D01*
X214795Y16992D01*
X214539Y16715D01*
X214323Y16360D01*
X214146Y15925D01*
X214008Y15412D01*
X213942Y15014D01*
X213831Y12480D01*
X209894D01*
X209853Y14368D01*
X209807Y14865D01*
X209717Y15412D01*
X209579Y15925D01*
X209402Y16360D01*
X209185Y16715D01*
X208929Y16992D01*
X208634Y17189D01*
X208299Y17307D01*
X207925Y17347D01*
X209578D01*
X209531Y17848D01*
X209249Y19439D01*
X208887Y20932D01*
X208443Y22325D01*
X207920Y23618D01*
X207315Y24813D01*
X206631Y25909D01*
X205865Y26905D01*
X217859D01*
X217094Y25909D01*
D02*
G37*
%LPC*%
G36*
X331494Y304823D02*
X329923D01*
X328383Y304517D01*
X326932Y303916D01*
X325626Y303043D01*
X324516Y301933D01*
X323644Y300627D01*
X323043Y299176D01*
X322736Y297636D01*
Y296850D01*
Y296065D01*
X323043Y294525D01*
X323644Y293074D01*
X324516Y291768D01*
X325626Y290658D01*
X326932Y289785D01*
X328383Y289184D01*
X329923Y288878D01*
X331494D01*
X333034Y289184D01*
X334485Y289785D01*
X335791Y290658D01*
X336901Y291768D01*
X337774Y293074D01*
X338375Y294525D01*
X338681Y296065D01*
Y297636D01*
X338375Y299176D01*
X337774Y300627D01*
X336901Y301933D01*
X335791Y303043D01*
X334485Y303916D01*
X333034Y304517D01*
X331494Y304823D01*
D02*
G37*
G36*
X244144D02*
X242573D01*
X241033Y304517D01*
X239582Y303916D01*
X238276Y303043D01*
X237166Y301933D01*
X236293Y300627D01*
X235692Y299176D01*
X235386Y297636D01*
Y296850D01*
Y296065D01*
X235692Y294525D01*
X236293Y293074D01*
X237166Y291768D01*
X238276Y290658D01*
X239582Y289785D01*
X241033Y289184D01*
X242573Y288878D01*
X244144D01*
X245684Y289184D01*
X247135Y289785D01*
X248440Y290658D01*
X249551Y291768D01*
X250423Y293074D01*
X251024Y294525D01*
X251331Y296065D01*
Y296850D01*
Y297636D01*
X251024Y299176D01*
X250423Y300627D01*
X249551Y301933D01*
X248440Y303043D01*
X247135Y303916D01*
X245684Y304517D01*
X244144Y304823D01*
D02*
G37*
G36*
X192126Y201014D02*
X191962D01*
X191729Y200968D01*
X191656D01*
X191588Y200940D01*
X191040Y200831D01*
X190259Y200309D01*
X171378Y181428D01*
X171210Y181358D01*
X171042Y181190D01*
X170845Y181058D01*
X170713Y180861D01*
X170545Y180693D01*
X170454Y180474D01*
X170323Y180277D01*
X170276Y180044D01*
X170186Y179825D01*
Y179588D01*
X170139Y179355D01*
X170186Y179123D01*
Y178885D01*
X170276Y178666D01*
X170323Y178434D01*
X170454Y178236D01*
X170545Y178017D01*
X170713Y177849D01*
X170845Y177652D01*
X171042Y177521D01*
X171210Y177353D01*
X171429Y177262D01*
X171626Y177130D01*
X171859Y177084D01*
X172078Y176993D01*
X172315D01*
X172548Y176947D01*
X172712D01*
X172944Y176993D01*
X173018D01*
X173085Y177021D01*
X173633Y177130D01*
X174415Y177652D01*
X193296Y196534D01*
X193464Y196603D01*
X193632Y196771D01*
X193829Y196903D01*
X193961Y197100D01*
X194129Y197268D01*
X194219Y197487D01*
X194351Y197684D01*
X194397Y197917D01*
X194488Y198136D01*
Y198373D01*
X194535Y198606D01*
X194488Y198838D01*
Y199076D01*
X194397Y199295D01*
X194351Y199528D01*
X194219Y199725D01*
X194129Y199944D01*
X193961Y200112D01*
X193829Y200309D01*
X193632Y200441D01*
X193464Y200608D01*
X193245Y200699D01*
X193048Y200831D01*
X192815Y200877D01*
X192596Y200968D01*
X192359D01*
X192126Y201014D01*
D02*
G37*
G36*
X331606Y183101D02*
X330681Y182980D01*
X329819Y182623D01*
X329079Y182055D01*
X328511Y181315D01*
X328154Y180453D01*
X328033Y179527D01*
Y177933D01*
X282340Y132241D01*
X277233Y127133D01*
X276665Y126393D01*
X276308Y125531D01*
X276186Y124606D01*
X276308Y123681D01*
X276665Y122819D01*
X277233Y122079D01*
X277973Y121511D01*
X278835Y121154D01*
X279760Y121032D01*
X280685Y121154D01*
X281547Y121511D01*
X282287Y122079D01*
X292911Y132703D01*
X334134Y173926D01*
X334701Y174666D01*
X335058Y175528D01*
X335180Y176453D01*
Y179527D01*
X335058Y180453D01*
X334701Y181315D01*
X334134Y182055D01*
X333393Y182623D01*
X332531Y182980D01*
X331606Y183101D01*
D02*
G37*
%LPD*%
G36*
X192220Y197429D02*
X192149Y197419D01*
X192076Y197400D01*
X192001Y197373D01*
X191923Y197337D01*
X191843Y197293D01*
X191762Y197240D01*
X191678Y197179D01*
X191503Y197030D01*
X191413Y196943D01*
X190448Y198205D01*
X190542Y198300D01*
X190909Y198724D01*
X190938Y198771D01*
X190958Y198811D01*
X190969Y198844D01*
X192220Y197429D01*
D02*
G37*
G36*
X174226Y179756D02*
X174132Y179661D01*
X173764Y179237D01*
X173735Y179190D01*
X173715Y179150D01*
X173705Y179118D01*
X172454Y180533D01*
X172525Y180543D01*
X172598Y180561D01*
X172673Y180588D01*
X172751Y180624D01*
X172830Y180668D01*
X172912Y180721D01*
X172996Y180782D01*
X173171Y180931D01*
X173261Y181018D01*
X174226Y179756D01*
D02*
G37*
%LPC*%
G36*
X156789Y304823D02*
X155219D01*
X153679Y304517D01*
X152228Y303916D01*
X150922Y303043D01*
X149811Y301933D01*
X148939Y300627D01*
X148338Y299176D01*
X148031Y297636D01*
Y296850D01*
Y296065D01*
X148338Y294525D01*
X148939Y293074D01*
X149811Y291768D01*
X150922Y290658D01*
X152228Y289785D01*
X153679Y289184D01*
X155219Y288878D01*
X156789D01*
X158329Y289184D01*
X159780Y289785D01*
X161086Y290658D01*
X162197Y291768D01*
X163069Y293074D01*
X163670Y294525D01*
X163976Y296065D01*
Y296850D01*
Y297636D01*
X163670Y299176D01*
X163069Y300627D01*
X162197Y301933D01*
X161086Y303043D01*
X159780Y303916D01*
X158329Y304517D01*
X156789Y304823D01*
D02*
G37*
G36*
X122736Y306948D02*
X110039D01*
X109579Y306856D01*
X109188Y306595D01*
X108927Y306205D01*
X108835Y305744D01*
Y296850D01*
Y208459D01*
X108927Y207998D01*
X109188Y207607D01*
X109579Y207346D01*
X110039Y207255D01*
X122736D01*
X123197Y207346D01*
X123588Y207607D01*
X123849Y207998D01*
X123941Y208459D01*
Y296850D01*
Y305744D01*
X123849Y306205D01*
X123588Y306595D01*
X123197Y306856D01*
X122736Y306948D01*
D02*
G37*
G36*
X151969Y230612D02*
X151043Y230490D01*
X150182Y230133D01*
X149441Y229565D01*
X148873Y228825D01*
X148516Y227963D01*
X148395Y227038D01*
Y207391D01*
X130233Y189229D01*
X129665Y188489D01*
X129307Y187627D01*
X129186Y186702D01*
X129307Y185777D01*
X129665Y184915D01*
X130233Y184175D01*
X130973Y183607D01*
X131835Y183250D01*
X132760Y183128D01*
X133685Y183250D01*
X134546Y183607D01*
X135287Y184175D01*
X154496Y203384D01*
X155064Y204124D01*
X155421Y204986D01*
X155542Y205911D01*
Y227038D01*
X155421Y227963D01*
X155064Y228825D01*
X154496Y229565D01*
X153755Y230133D01*
X152893Y230490D01*
X151969Y230612D01*
D02*
G37*
%LPD*%
G36*
X122736Y208459D02*
X110039D01*
Y305744D01*
X122736D01*
Y208459D01*
D02*
G37*
%LPC*%
G36*
X24560Y159173D02*
X23471D01*
X22420Y158891D01*
X21477Y158347D01*
X20708Y157578D01*
X20164Y156635D01*
X19882Y155584D01*
Y154495D01*
X20164Y153444D01*
X20708Y152501D01*
X21477Y151732D01*
X22420Y151187D01*
X23471Y150906D01*
X24560D01*
X25611Y151187D01*
X26554Y151732D01*
X27324Y152501D01*
X27868Y153444D01*
X28150Y154495D01*
Y155584D01*
X27868Y156635D01*
X27324Y157578D01*
X26554Y158347D01*
X25611Y158891D01*
X24560Y159173D01*
D02*
G37*
G36*
Y149173D02*
X23471D01*
X22420Y148891D01*
X21477Y148347D01*
X20708Y147578D01*
X20164Y146635D01*
X19882Y145584D01*
Y144495D01*
X20164Y143444D01*
X20708Y142501D01*
X21477Y141732D01*
X22420Y141187D01*
X23471Y140905D01*
X24560D01*
X25611Y141187D01*
X26554Y141732D01*
X27324Y142501D01*
X27868Y143444D01*
X28150Y144495D01*
Y145584D01*
X27868Y146635D01*
X27324Y147578D01*
X26554Y148347D01*
X25611Y148891D01*
X24560Y149173D01*
D02*
G37*
G36*
Y139173D02*
X23471D01*
X22420Y138891D01*
X21477Y138347D01*
X20708Y137578D01*
X20164Y136635D01*
X19882Y135584D01*
Y134495D01*
X20164Y133444D01*
X20708Y132501D01*
X21477Y131731D01*
X22420Y131187D01*
X23471Y130905D01*
X24560D01*
X25611Y131187D01*
X26554Y131731D01*
X27324Y132501D01*
X27868Y133444D01*
X28150Y134495D01*
Y135584D01*
X27868Y136635D01*
X27324Y137578D01*
X26554Y138347D01*
X25611Y138891D01*
X24560Y139173D01*
D02*
G37*
G36*
Y129173D02*
X23471D01*
X22420Y128892D01*
X21477Y128347D01*
X20708Y127578D01*
X20164Y126635D01*
X19882Y125584D01*
Y124495D01*
X20164Y123444D01*
X20708Y122501D01*
X21477Y121731D01*
X22420Y121187D01*
X23471Y120905D01*
X24560D01*
X25611Y121187D01*
X26554Y121731D01*
X27324Y122501D01*
X27868Y123444D01*
X28150Y124495D01*
Y125584D01*
X27868Y126635D01*
X27324Y127578D01*
X26554Y128347D01*
X25611Y128892D01*
X24560Y129173D01*
D02*
G37*
%LPD*%
D13*
X354331Y374016D02*
G03*
X334646Y393701I-19685J0D01*
G01*
Y0D02*
G03*
X354331Y19685I0J19685D01*
G01*
X19685Y393701D02*
G03*
X0Y374016I0J-19685D01*
G01*
X0Y19685D02*
G03*
X19685Y0I19685J0D01*
G01*
X354331Y19685D02*
Y374016D01*
X19685Y0D02*
X334646D01*
X0Y19685D02*
Y374016D01*
X19685Y393701D02*
X334646D01*
D16*
X299213Y12480D02*
D03*
X211862Y368516D02*
D03*
Y12480D02*
D03*
X124508Y369304D02*
D03*
X83563Y356791D02*
D03*
D19*
X24016Y196812D02*
D03*
Y189529D02*
D03*
Y90703D02*
D03*
Y97986D02*
D03*
D21*
X14016Y90703D02*
D03*
Y96608D02*
D03*
Y189578D02*
D03*
Y195484D02*
D03*
D59*
X172548Y179355D02*
X172712D01*
X191962Y198606D01*
X192126D01*
D60*
X299213Y12480D02*
Y32008D01*
X211862Y12480D02*
Y32008D01*
X331606Y176453D02*
Y179527D01*
X279760Y124606D02*
X331606Y176453D01*
X211862Y56709D02*
X239340Y84186D01*
X211862Y32008D02*
Y56709D01*
X325700Y214777D02*
Y248260D01*
X299213Y274748D02*
X325700Y248260D01*
X299213Y274748D02*
Y344370D01*
X132760Y186702D02*
X151969Y205911D01*
Y227038D01*
D61*
X157480Y124216D02*
Y135433D01*
X124328Y119882D02*
X153146D01*
X157480Y124216D01*
X211862Y344370D02*
Y368516D01*
X124508Y344370D02*
Y369304D01*
X14040Y189553D02*
X23991D01*
X24016Y189529D01*
X14016Y189578D02*
X14040Y189553D01*
X24016Y196550D02*
Y213100D01*
X14016Y96608D02*
Y115039D01*
Y90703D02*
X24016D01*
Y97986D02*
Y115039D01*
X14016Y195484D02*
Y213100D01*
D62*
X181890Y280512D02*
Y361024D01*
D63*
X143601Y169075D02*
X144749D01*
X132757D02*
X143601D01*
X156528Y180854D02*
X168307Y192633D01*
X144749Y169075D02*
X156528Y180854D01*
Y166405D02*
Y180854D01*
X168307Y192633D02*
Y266929D01*
X121924Y169075D02*
X132757D01*
X121653D02*
X121924D01*
X104645Y152067D02*
X121653Y169075D01*
X168307Y266929D02*
X181890Y280512D01*
X299213Y32008D02*
Y78839D01*
X204429Y173622D02*
Y240105D01*
Y173622D02*
X299213Y78839D01*
X211348Y247023D02*
X221949D01*
X227067D01*
X204429Y240105D02*
X211348Y247023D01*
D65*
X53150Y336614D02*
D03*
Y356299D02*
D03*
D66*
X24016Y223099D02*
D03*
X14016D02*
D03*
X24016Y213100D02*
D03*
Y155039D02*
D03*
X14016D02*
D03*
X24016Y145039D02*
D03*
X14016D02*
D03*
X24016Y135039D02*
D03*
X14016D02*
D03*
X24016Y125039D02*
D03*
X14016D02*
D03*
X24016Y115039D02*
D03*
D67*
X14016Y213100D02*
D03*
Y115039D02*
D03*
D68*
X334646Y374016D02*
D03*
Y19685D02*
D03*
X19685Y307087D02*
D03*
Y19685D02*
D03*
D69*
X181890Y361024D02*
D03*
D70*
X163386Y349213D02*
D03*
D71*
Y372835D02*
D03*
D72*
X19488Y267244D02*
D03*
Y277244D02*
D03*
D73*
X93012Y329213D02*
D03*
X267717D02*
D03*
X243358Y47165D02*
D03*
D74*
X93012Y79528D02*
D03*
X156004Y296850D02*
D03*
X267717Y79528D02*
D03*
X330709Y296850D02*
D03*
X243358D02*
D03*
X180366Y79528D02*
D03*
D75*
X123310Y127362D02*
D03*
X331606Y179527D02*
D03*
X325700Y214777D02*
D03*
X157480Y135433D02*
D03*
X124150Y142900D02*
D03*
X124328Y119882D02*
D03*
X121402D02*
D03*
X118477D02*
D03*
X115551D02*
D03*
X120474Y127362D02*
D03*
X117358D02*
D03*
X394Y0D02*
D03*
D76*
X172548Y179355D02*
D03*
X65855Y158285D02*
D03*
Y169075D02*
D03*
X82724Y163014D02*
D03*
Y169075D02*
D03*
X90396D02*
D03*
X179429Y140059D02*
D03*
X176673Y147539D02*
D03*
X171260Y152756D02*
D03*
X159547Y163878D02*
D03*
X164936Y158285D02*
D03*
Y169075D02*
D03*
X154581D02*
D03*
X132757D02*
D03*
X111396D02*
D03*
X143601D02*
D03*
X121924D02*
D03*
X101550D02*
D03*
X115682Y158285D02*
D03*
X136914D02*
D03*
X129257D02*
D03*
X121924D02*
D03*
X101550D02*
D03*
X143601D02*
D03*
X149606Y156890D02*
D03*
X154331Y152461D02*
D03*
X159646Y147047D02*
D03*
X164936Y141810D02*
D03*
X168405Y137697D02*
D03*
X183551Y146197D02*
D03*
Y132918D02*
D03*
Y120706D02*
D03*
Y100681D02*
D03*
Y107608D02*
D03*
X164936Y100681D02*
D03*
Y107608D02*
D03*
X143601Y100681D02*
D03*
Y107608D02*
D03*
X121924Y100681D02*
D03*
Y107608D02*
D03*
X101550Y100681D02*
D03*
Y107608D02*
D03*
X82724Y100681D02*
D03*
Y107608D02*
D03*
X65855Y100681D02*
D03*
Y107608D02*
D03*
X48252D02*
D03*
Y100681D02*
D03*
X223787Y302669D02*
D03*
X205941D02*
D03*
X319107Y236838D02*
D03*
Y221372D02*
D03*
X303062Y250029D02*
D03*
Y236838D02*
D03*
X286821Y156364D02*
D03*
X256193Y147802D02*
D03*
X205941D02*
D03*
X278750Y190719D02*
D03*
X187625Y207224D02*
D03*
Y221503D02*
D03*
X143143Y190850D02*
D03*
X89567Y221372D02*
D03*
Y236838D02*
D03*
Y250029D02*
D03*
Y264043D02*
D03*
Y281775D02*
D03*
Y289830D02*
D03*
X99311Y302669D02*
D03*
Y289830D02*
D03*
X143204D02*
D03*
X133352D02*
D03*
X143204Y302669D02*
D03*
X133352D02*
D03*
X273032Y281775D02*
D03*
X256193D02*
D03*
X239049D02*
D03*
X223787D02*
D03*
X205941D02*
D03*
X187625Y250029D02*
D03*
Y264043D02*
D03*
X205941Y264173D02*
D03*
X223787Y264043D02*
D03*
X239049Y250029D02*
D03*
X256193D02*
D03*
X273023D02*
D03*
Y236838D02*
D03*
Y221372D02*
D03*
X286821Y221503D02*
D03*
Y236968D02*
D03*
Y250160D02*
D03*
Y264043D02*
D03*
X273023D02*
D03*
X256193D02*
D03*
X239049D02*
D03*
X192126Y198606D02*
D03*
X107974Y152067D02*
D03*
X103347Y147244D02*
D03*
X107974D02*
D03*
X103347Y152067D02*
D03*
X107974Y156004D02*
D03*
X118852Y293652D02*
D03*
Y300422D02*
D03*
X114337D02*
D03*
Y293652D02*
D03*
X118852Y286881D02*
D03*
X114337D02*
D03*
X118852Y223622D02*
D03*
X118888Y219461D02*
D03*
X118852Y215301D02*
D03*
X114337D02*
D03*
Y219461D02*
D03*
Y223622D02*
D03*
X279760Y124606D02*
D03*
X239340Y84186D02*
D03*
X186829Y186614D02*
D03*
X224526Y244911D02*
D03*
X227067Y247023D02*
D03*
X221949D02*
D03*
X77442Y124059D02*
D03*
Y127482D02*
D03*
Y130905D02*
D03*
X73130Y124059D02*
D03*
Y127482D02*
D03*
Y130905D02*
D03*
X132760Y186702D02*
D03*
X151969Y227038D02*
D03*
X187303Y165673D02*
D03*
X231222Y187106D02*
D03*
Y169193D02*
D03*
X236221Y166634D02*
D03*
X231222Y176870D02*
D03*
X217697Y229518D02*
D03*
X242217Y229518D02*
D03*
X240391Y187106D02*
D03*
X279325Y160070D02*
D03*
Y169193D02*
D03*
X303062Y213492D02*
D03*
X291054D02*
D03*
D77*
X124508Y32008D02*
D03*
Y344370D02*
D03*
X299213Y32008D02*
D03*
Y344370D02*
D03*
X211862D02*
D03*
Y32008D02*
D03*
D78*
X124508D02*
X211862D01*
Y344370D02*
X299213D01*
M02*
