G04*
G04 #@! TF.GenerationSoftware,Altium Limited,Altium Designer,21.1.1 (26)*
G04*
G04 Layer_Color=255*
%FSLAX25Y25*%
%MOIN*%
G70*
G04*
G04 #@! TF.SameCoordinates,5AD375DC-C50E-4051-8569-BF36B36DD858*
G04*
G04*
G04 #@! TF.FilePolarity,Positive*
G04*
G01*
G75*
%ADD13C,0.00591*%
%ADD16C,0.05000*%
%ADD19R,0.05315X0.03740*%
%ADD21R,0.03543X0.02559*%
%ADD65R,0.27559X0.11024*%
%ADD66C,0.05906*%
%ADD67R,0.05906X0.05906*%
%ADD68C,0.06000*%
%ADD69O,0.08858X0.17717*%
%ADD70O,0.19685X0.09843*%
%ADD71O,0.17717X0.08858*%
%ADD72C,0.07087*%
%ADD73C,0.09409*%
%ADD74C,0.13583*%
%ADD77R,0.25472X0.29370*%
D13*
X354331Y374016D02*
G03*
X334646Y393701I-19685J0D01*
G01*
Y0D02*
G03*
X354331Y19685I0J19685D01*
G01*
X19685Y393701D02*
G03*
X0Y374016I0J-19685D01*
G01*
X0Y19685D02*
G03*
X19685Y0I19685J0D01*
G01*
X354331Y19685D02*
Y374016D01*
X19685Y0D02*
X334646D01*
X0Y19685D02*
Y374016D01*
X19685Y393701D02*
X334646D01*
D16*
X299213Y12480D02*
D03*
X211862Y368516D02*
D03*
Y12480D02*
D03*
X124508Y369304D02*
D03*
X83563Y356791D02*
D03*
D19*
X24016Y196812D02*
D03*
Y189529D02*
D03*
Y90703D02*
D03*
Y97986D02*
D03*
D21*
X14016Y90703D02*
D03*
Y96608D02*
D03*
Y189578D02*
D03*
Y195484D02*
D03*
D65*
X53150Y336614D02*
D03*
Y356299D02*
D03*
D66*
X24016Y223099D02*
D03*
X14016D02*
D03*
X24016Y213100D02*
D03*
Y155039D02*
D03*
X14016D02*
D03*
X24016Y145039D02*
D03*
X14016D02*
D03*
X24016Y135039D02*
D03*
X14016D02*
D03*
X24016Y125039D02*
D03*
X14016D02*
D03*
X24016Y115039D02*
D03*
D67*
X14016Y213100D02*
D03*
Y115039D02*
D03*
D68*
X334646Y374016D02*
D03*
Y19685D02*
D03*
X19685Y307087D02*
D03*
Y19685D02*
D03*
D69*
X181890Y361024D02*
D03*
D70*
X163386Y349213D02*
D03*
D71*
Y372835D02*
D03*
D72*
X19488Y267244D02*
D03*
Y277244D02*
D03*
D73*
X93012Y329213D02*
D03*
X267717D02*
D03*
X243358Y47165D02*
D03*
D74*
X93012Y79528D02*
D03*
X156004Y296850D02*
D03*
X267717Y79528D02*
D03*
X330709Y296850D02*
D03*
X243358D02*
D03*
X180366Y79528D02*
D03*
D77*
X124508Y32008D02*
D03*
Y344370D02*
D03*
X299213Y32008D02*
D03*
Y344370D02*
D03*
X211862D02*
D03*
Y32008D02*
D03*
M02*
