G04*
G04 #@! TF.GenerationSoftware,Altium Limited,Altium Designer,21.1.1 (26)*
G04*
G04 Layer_Color=65535*
%FSLAX25Y25*%
%MOIN*%
G70*
G04*
G04 #@! TF.SameCoordinates,5AD375DC-C50E-4051-8569-BF36B36DD858*
G04*
G04*
G04 #@! TF.FilePolarity,Positive*
G04*
G01*
G75*
%ADD13C,0.00591*%
%ADD15C,0.01000*%
%ADD80C,0.00600*%
D13*
X354331Y374016D02*
G03*
X334646Y393701I-19685J0D01*
G01*
Y0D02*
G03*
X354331Y19685I0J19685D01*
G01*
X19685Y393701D02*
G03*
X0Y374016I0J-19685D01*
G01*
X0Y19685D02*
G03*
X19685Y0I19685J0D01*
G01*
X354331Y19685D02*
Y374016D01*
X19685Y0D02*
X334646D01*
X0Y19685D02*
Y374016D01*
X19685Y393701D02*
X334646D01*
D15*
X-35433D02*
X-33433Y387701D01*
X-37433D02*
X-35433Y393701D01*
X-37433Y6000D02*
X-35433Y0D01*
X-33433Y6000D01*
X-35433Y212845D02*
Y393701D01*
Y0D02*
Y177656D01*
X-36433Y393701D02*
X19685D01*
X-36433Y0D02*
X19685D01*
X0Y468504D02*
X6000Y470504D01*
X0Y468504D02*
X6000Y466504D01*
X348331D02*
X354331Y468504D01*
X348331Y470504D02*
X354331Y468504D01*
X0D02*
X160470D01*
X190661D02*
X354331D01*
X0Y19685D02*
Y469504D01*
X354331Y19685D02*
Y469504D01*
D80*
X-31834Y179256D02*
Y181255D01*
Y180255D01*
X-37832D01*
X-36832Y179256D01*
Y184254D02*
X-37832Y185254D01*
Y187253D01*
X-36832Y188253D01*
X-32834D01*
X-31834Y187253D01*
Y185254D01*
X-32834Y184254D01*
X-36832D01*
Y190252D02*
X-37832Y191252D01*
Y193251D01*
X-36832Y194251D01*
X-32834D01*
X-31834Y193251D01*
Y191252D01*
X-32834Y190252D01*
X-36832D01*
X-31834Y196250D02*
X-32834D01*
Y197250D01*
X-31834D01*
Y196250D01*
X-36832Y201249D02*
X-37832Y202248D01*
Y204247D01*
X-36832Y205247D01*
X-32834D01*
X-31834Y204247D01*
Y202248D01*
X-32834Y201249D01*
X-36832D01*
Y207246D02*
X-37832Y208246D01*
Y210245D01*
X-36832Y211245D01*
X-32834D01*
X-31834Y210245D01*
Y208246D01*
X-32834Y207246D01*
X-36832D01*
X162070Y465905D02*
X163069Y464905D01*
X165069D01*
X166068Y465905D01*
Y469903D01*
X165069Y470903D01*
X163069D01*
X162070Y469903D01*
Y468904D01*
X163069Y467904D01*
X166068D01*
X168068Y469903D02*
X169068Y470903D01*
X171067D01*
X172066Y469903D01*
Y465905D01*
X171067Y464905D01*
X169068D01*
X168068Y465905D01*
Y469903D01*
X174066Y464905D02*
Y465905D01*
X175066D01*
Y464905D01*
X174066D01*
X179064Y469903D02*
X180064Y470903D01*
X182063D01*
X183063Y469903D01*
Y465905D01*
X182063Y464905D01*
X180064D01*
X179064Y465905D01*
Y469903D01*
X185062D02*
X186062Y470903D01*
X188061D01*
X189061Y469903D01*
Y465905D01*
X188061Y464905D01*
X186062D01*
X185062Y465905D01*
Y469903D01*
M02*
