G04*
G04 #@! TF.GenerationSoftware,Altium Limited,Altium Designer,21.1.1 (26)*
G04*
G04 Layer_Physical_Order=2*
G04 Layer_Color=16711680*
%FSLAX25Y25*%
%MOIN*%
G70*
G04*
G04 #@! TF.SameCoordinates,8D04B9CC-E963-441F-A638-D17954596142*
G04*
G04*
G04 #@! TF.FilePolarity,Positive*
G04*
G01*
G75*
%ADD16C,0.00591*%
%ADD18C,0.05000*%
%ADD25R,0.05315X0.03740*%
%ADD31R,0.03543X0.02559*%
%ADD62C,0.02756*%
%ADD63C,0.02362*%
%ADD64C,0.03150*%
%ADD66C,0.03937*%
%ADD68C,0.06000*%
%ADD69C,0.05906*%
%ADD70R,0.05906X0.05906*%
%ADD71O,0.08858X0.17717*%
%ADD72O,0.19685X0.09843*%
%ADD73O,0.17717X0.08858*%
%ADD74C,0.07087*%
%ADD75C,0.09409*%
%ADD76C,0.13583*%
%ADD77R,0.04528X0.04134*%
%ADD78R,0.25472X0.29370*%
%ADD79C,0.11811*%
G36*
X155325Y383367D02*
X155390Y383203D01*
X155498Y383058D01*
X155650Y382932D01*
X155846Y382826D01*
X156085Y382739D01*
X156367Y382672D01*
X156693Y382623D01*
X157062Y382594D01*
X157475Y382585D01*
Y380222D01*
X157062Y380215D01*
X156367Y380152D01*
X156085Y380097D01*
X155846Y380027D01*
X155650Y379941D01*
X155498Y379840D01*
X155390Y379722D01*
X155325Y379590D01*
X155303Y379441D01*
Y383551D01*
X155325Y383367D01*
D02*
G37*
G36*
X150799Y379441D02*
X150776Y379607D01*
X150705Y379756D01*
X150587Y379887D01*
X150422Y380000D01*
X150209Y380097D01*
X149949Y380175D01*
X149642Y380236D01*
X149288Y380280D01*
X148886Y380306D01*
X148437Y380315D01*
Y382677D01*
X148886Y382686D01*
X149642Y382756D01*
X149949Y382817D01*
X150209Y382896D01*
X150422Y382992D01*
X150587Y383105D01*
X150705Y383236D01*
X150776Y383385D01*
X150799Y383551D01*
Y379441D01*
D02*
G37*
G36*
X142138Y383385D02*
X142209Y383236D01*
X142327Y383105D01*
X142492Y382992D01*
X142704Y382896D01*
X142964Y382817D01*
X143272Y382756D01*
X143626Y382712D01*
X144027Y382686D01*
X144476Y382677D01*
Y380315D01*
X144027Y380306D01*
X143272Y380236D01*
X142964Y380175D01*
X142704Y380097D01*
X142492Y380000D01*
X142327Y379887D01*
X142209Y379756D01*
X142138Y379607D01*
X142114Y379441D01*
Y383551D01*
X142138Y383385D01*
D02*
G37*
G36*
X65805Y374096D02*
X65585Y374249D01*
X65346Y374386D01*
X65088Y374507D01*
X64811Y374612D01*
X64516Y374700D01*
X64202Y374773D01*
X63869Y374829D01*
X63517Y374869D01*
X62757Y374902D01*
Y377264D01*
X63147Y377272D01*
X63869Y377336D01*
X64202Y377393D01*
X64516Y377465D01*
X64811Y377554D01*
X65088Y377658D01*
X65346Y377779D01*
X65585Y377916D01*
X65805Y378069D01*
Y374096D01*
D02*
G37*
G36*
X195731Y374640D02*
X195594Y374401D01*
X195473Y374143D01*
X195369Y373867D01*
X195280Y373571D01*
X195208Y373257D01*
X195151Y372924D01*
X195111Y372572D01*
X195079Y371812D01*
X192717D01*
X192709Y372202D01*
X192644Y372924D01*
X192588Y373257D01*
X192515Y373571D01*
X192427Y373867D01*
X192322Y374143D01*
X192201Y374401D01*
X192064Y374640D01*
X191911Y374860D01*
X195884D01*
X195731Y374640D01*
D02*
G37*
G36*
X104983D02*
X104846Y374401D01*
X104725Y374143D01*
X104621Y373867D01*
X104532Y373571D01*
X104460Y373257D01*
X104403Y372924D01*
X104363Y372572D01*
X104331Y371812D01*
X101969D01*
X101961Y372202D01*
X101896Y372924D01*
X101840Y373257D01*
X101767Y373571D01*
X101679Y373867D01*
X101574Y374143D01*
X101453Y374401D01*
X101316Y374640D01*
X101163Y374860D01*
X105136D01*
X104983Y374640D01*
D02*
G37*
G36*
X38601Y373451D02*
X38764Y373252D01*
X38981Y373077D01*
X39251Y372924D01*
X39574Y372796D01*
X39950Y372690D01*
X40378Y372608D01*
X40860Y372550D01*
X41395Y372515D01*
X41982Y372503D01*
X42713Y370141D01*
X42157Y370129D01*
X41247Y370035D01*
X40893Y369952D01*
X40607Y369846D01*
X40388Y369716D01*
X40236Y369563D01*
X40153Y369387D01*
X40136Y369186D01*
X40187Y368962D01*
X38490Y373674D01*
X38601Y373451D01*
D02*
G37*
G36*
X195091Y367647D02*
X195126Y367244D01*
X195185Y366887D01*
X195268Y366579D01*
X195374Y366318D01*
X195504Y366104D01*
X195658Y365938D01*
X195835Y365819D01*
X196035Y365748D01*
X196260Y365724D01*
X191535D01*
X191760Y365748D01*
X191961Y365819D01*
X192138Y365938D01*
X192291Y366104D01*
X192421Y366318D01*
X192528Y366579D01*
X192610Y366887D01*
X192669Y367244D01*
X192705Y367647D01*
X192717Y368098D01*
X195079D01*
X195091Y367647D01*
D02*
G37*
G36*
X104342D02*
X104378Y367244D01*
X104437Y366887D01*
X104520Y366579D01*
X104626Y366318D01*
X104756Y366104D01*
X104909Y365938D01*
X105087Y365819D01*
X105287Y365748D01*
X105512Y365724D01*
X100787D01*
X101012Y365748D01*
X101213Y365819D01*
X101390Y365938D01*
X101543Y366104D01*
X101673Y366318D01*
X101779Y366579D01*
X101862Y366887D01*
X101921Y367244D01*
X101957Y367647D01*
X101969Y368098D01*
X104331D01*
X104342Y367647D01*
D02*
G37*
G36*
X272721Y341620D02*
X272603Y342742D01*
X272248Y343746D01*
X271657Y344632D01*
X270829Y345400D01*
X269765Y346049D01*
X268465Y346581D01*
X266928Y346994D01*
X265154Y347289D01*
X263144Y347466D01*
X260898Y347526D01*
Y359337D01*
X263144Y359396D01*
X265154Y359573D01*
X266928Y359868D01*
X268465Y360281D01*
X269765Y360813D01*
X270829Y361463D01*
X271657Y362230D01*
X272248Y363116D01*
X272603Y364120D01*
X272721Y365242D01*
Y341620D01*
D02*
G37*
G36*
X206974Y364120D02*
X207329Y363116D01*
X207920Y362230D01*
X208748Y361463D01*
X209812Y360813D01*
X211112Y360281D01*
X212649Y359868D01*
X214423Y359573D01*
X216433Y359396D01*
X218679Y359337D01*
Y347526D01*
X216433Y347466D01*
X214423Y347289D01*
X212649Y346994D01*
X211112Y346581D01*
X209812Y346049D01*
X208748Y345400D01*
X207920Y344632D01*
X207329Y343746D01*
X206974Y342742D01*
X206856Y341620D01*
Y365242D01*
X206974Y364120D01*
D02*
G37*
G36*
X289882Y336363D02*
X289547Y336244D01*
X289252Y336047D01*
X288996Y335770D01*
X288779Y335415D01*
X288602Y334980D01*
X288465Y334467D01*
X288366Y333875D01*
X288307Y333203D01*
X288287Y332453D01*
X284350D01*
X284331Y333203D01*
X284272Y333875D01*
X284173Y334467D01*
X284035Y334980D01*
X283858Y335415D01*
X283642Y335770D01*
X283386Y336047D01*
X283090Y336244D01*
X282756Y336363D01*
X282382Y336402D01*
X290256D01*
X289882Y336363D01*
D02*
G37*
G36*
X39831Y342793D02*
X39321Y341889D01*
X38871Y340851D01*
X38482Y339680D01*
X38151Y338374D01*
X37881Y336934D01*
X37672Y335360D01*
X37432Y331809D01*
X37402Y329833D01*
X25591D01*
X25561Y331809D01*
X25111Y336934D01*
X24841Y338374D01*
X24511Y339680D01*
X24121Y340851D01*
X23671Y341889D01*
X23161Y342793D01*
X22591Y343562D01*
X40401D01*
X39831Y342793D01*
D02*
G37*
G36*
X113543Y336284D02*
X112539Y335929D01*
X111653Y335338D01*
X110886Y334510D01*
X110236Y333446D01*
X109705Y332146D01*
X109291Y330609D01*
X108996Y328835D01*
X108819Y326825D01*
X108760Y324579D01*
X96949D01*
X96890Y326825D01*
X96713Y328835D01*
X96417Y330609D01*
X96004Y332146D01*
X95472Y333446D01*
X94823Y334510D01*
X94055Y335338D01*
X93169Y335929D01*
X92165Y336284D01*
X91043Y336402D01*
X114665D01*
X113543Y336284D01*
D02*
G37*
G36*
X15297Y213571D02*
X15097Y213500D01*
X14919Y213382D01*
X14766Y213217D01*
X14636Y213004D01*
X14529Y212744D01*
X14447Y212437D01*
X14388Y212083D01*
X14352Y211681D01*
X14341Y211232D01*
X11978D01*
X11966Y211681D01*
X11931Y212083D01*
X11872Y212437D01*
X11789Y212744D01*
X11683Y213004D01*
X11553Y213217D01*
X11400Y213382D01*
X11223Y213500D01*
X11022Y213571D01*
X10797Y213595D01*
X15522D01*
X15297Y213571D01*
D02*
G37*
G36*
X25108Y206181D02*
X25186Y205173D01*
X25254Y204764D01*
X25341Y204417D01*
X25448Y204134D01*
X25575Y203913D01*
X25721Y203756D01*
X25886Y203661D01*
X26071Y203630D01*
X20780D01*
X21002Y203661D01*
X21201Y203756D01*
X21376Y203913D01*
X21528Y204134D01*
X21656Y204417D01*
X21762Y204764D01*
X21844Y205173D01*
X21902Y205645D01*
X21937Y206181D01*
X21949Y206779D01*
X25098D01*
X25108Y206181D01*
D02*
G37*
G36*
X14457Y202744D02*
X10937D01*
X11135Y202767D01*
X11312Y202838D01*
X11468Y202957D01*
X11603Y203122D01*
X11718Y203334D01*
X11812Y203594D01*
X11885Y203901D01*
X11937Y204256D01*
X11968Y204657D01*
X11978Y205106D01*
X14341D01*
X14457Y202744D01*
D02*
G37*
G36*
X14475Y196803D02*
X14532Y196772D01*
X14626Y196744D01*
X14758Y196720D01*
X14927Y196700D01*
X15379Y196670D01*
X16339Y196653D01*
Y194291D01*
X14457Y194303D01*
Y196838D01*
X14475Y196803D01*
D02*
G37*
G36*
X20780Y192630D02*
X20756Y192759D01*
X20685Y192874D01*
X20567Y192975D01*
X20402Y193063D01*
X20189Y193138D01*
X19929Y193199D01*
X19622Y193246D01*
X19268Y193280D01*
X18417Y193307D01*
Y195669D01*
X18866Y195676D01*
X19622Y195730D01*
X19929Y195778D01*
X20189Y195838D01*
X20402Y195913D01*
X20567Y196001D01*
X20685Y196103D01*
X20756Y196218D01*
X20780Y196346D01*
Y192630D01*
D02*
G37*
G36*
X25946Y123847D02*
X25710Y123536D01*
X25313Y122940D01*
X25152Y122656D01*
X25015Y122382D01*
X24903Y122117D01*
X24816Y121861D01*
X24754Y121615D01*
X24717Y121378D01*
X24705Y121151D01*
X22343Y121237D01*
X22331Y121471D01*
X22298Y121714D01*
X22242Y121965D01*
X22164Y122224D01*
X22063Y122491D01*
X21940Y122766D01*
X21795Y123049D01*
X21437Y123639D01*
X21225Y123946D01*
X25946Y123847D01*
D02*
G37*
G36*
X15297Y122705D02*
X15096Y122634D01*
X14919Y122516D01*
X14766Y122351D01*
X14636Y122138D01*
X14529Y121878D01*
X14447Y121571D01*
X14388Y121217D01*
X14352Y120815D01*
X14341Y120366D01*
X11978D01*
X11966Y120815D01*
X11931Y121217D01*
X11872Y121571D01*
X11789Y121878D01*
X11683Y122138D01*
X11553Y122351D01*
X11400Y122516D01*
X11223Y122634D01*
X11022Y122705D01*
X10797Y122729D01*
X15522D01*
X15297Y122705D01*
D02*
G37*
G36*
X24716Y113811D02*
X24752Y113409D01*
X24811Y113055D01*
X24894Y112748D01*
X25000Y112488D01*
X25130Y112275D01*
X25284Y112110D01*
X25461Y111992D01*
X25661Y111921D01*
X25886Y111897D01*
X21161D01*
X21386Y111921D01*
X21587Y111992D01*
X21764Y112110D01*
X21917Y112275D01*
X22047Y112488D01*
X22154Y112748D01*
X22236Y113055D01*
X22295Y113409D01*
X22331Y113811D01*
X22343Y114260D01*
X24705D01*
X24716Y113811D01*
D02*
G37*
G36*
X14457Y110323D02*
X10937D01*
X11135Y110346D01*
X11312Y110417D01*
X11468Y110535D01*
X11603Y110701D01*
X11718Y110913D01*
X11812Y111173D01*
X11885Y111480D01*
X11937Y111835D01*
X11968Y112236D01*
X11978Y112685D01*
X14341D01*
X14457Y110323D01*
D02*
G37*
G36*
X122441Y331890D02*
Y309842D01*
X107087Y294488D01*
X41732D01*
X29921Y282677D01*
Y222047D01*
X41339Y222047D01*
X41339Y130709D01*
X55118Y116929D01*
X125591D01*
X130709Y122047D01*
X138189D01*
X138189Y108661D01*
X52756Y108661D01*
X33465Y127953D01*
Y207874D01*
X29134Y212205D01*
X19291D01*
X19291Y222047D01*
X19291D01*
Y247244D01*
X25197Y253150D01*
Y272047D01*
X14961Y272047D01*
Y282677D01*
X36220Y303937D01*
X101575D01*
X112992Y315354D01*
Y332283D01*
X122835D01*
X122441Y331890D01*
D02*
G37*
G36*
X14480Y104326D02*
X14551Y104244D01*
X14669Y104172D01*
X14834Y104110D01*
X15047Y104057D01*
X15307Y104014D01*
X15614Y103980D01*
X16370Y103942D01*
X16819Y103937D01*
Y101575D01*
X14457Y101882D01*
Y104417D01*
X14480Y104326D01*
D02*
G37*
G36*
X20780Y100898D02*
X20756Y101026D01*
X20685Y101142D01*
X20567Y101243D01*
X20402Y101331D01*
X20189Y101406D01*
X19929Y101467D01*
X19622Y101514D01*
X19268Y101548D01*
X18417Y101575D01*
Y103937D01*
X18866Y103944D01*
X19622Y103998D01*
X19929Y104045D01*
X20189Y104106D01*
X20402Y104181D01*
X20567Y104269D01*
X20685Y104370D01*
X20756Y104485D01*
X20780Y104614D01*
Y100898D01*
D02*
G37*
G36*
X291398Y62938D02*
X291575Y60929D01*
X291870Y59155D01*
X292284Y57618D01*
X292815Y56318D01*
X293465Y55253D01*
X294232Y54426D01*
X295118Y53835D01*
X296122Y53480D01*
X297244Y53362D01*
X273622D01*
X274744Y53480D01*
X275748Y53835D01*
X276634Y54426D01*
X277402Y55253D01*
X278051Y56318D01*
X278583Y57618D01*
X278996Y59155D01*
X279291Y60929D01*
X279468Y62938D01*
X279528Y65185D01*
X291339D01*
X291398Y62938D01*
D02*
G37*
G36*
X196132Y56560D02*
X196191Y55889D01*
X196289Y55297D01*
X196427Y54783D01*
X196604Y54349D01*
X196821Y53994D01*
X197077Y53717D01*
X197372Y53520D01*
X197707Y53401D01*
X198081Y53362D01*
X190207D01*
X190581Y53401D01*
X190915Y53520D01*
X191211Y53717D01*
X191466Y53994D01*
X191683Y54349D01*
X191860Y54783D01*
X191998Y55297D01*
X192096Y55889D01*
X192156Y56560D01*
X192175Y57311D01*
X196112D01*
X196132Y56560D01*
D02*
G37*
G36*
X195710Y41261D02*
X195704Y39203D01*
X195653Y38750D01*
X195577Y38413D01*
X195477Y38192D01*
X195352Y38088D01*
X195202Y38100D01*
X195028Y38229D01*
X193358Y36558D01*
X193486Y36384D01*
X193498Y36235D01*
X193394Y36110D01*
X193174Y36009D01*
X192837Y35933D01*
X192383Y35882D01*
X191814Y35856D01*
X190325Y35877D01*
X189407Y35924D01*
X195662Y42180D01*
X195710Y41261D01*
D02*
G37*
G36*
X181420Y30008D02*
X181301Y31130D01*
X180947Y32134D01*
X180357Y33020D01*
X179530Y33787D01*
X178467Y34437D01*
X177167Y34969D01*
X175632Y35382D01*
X173860Y35677D01*
X171853Y35854D01*
X169608Y35913D01*
Y47724D01*
X171853Y47781D01*
X173860Y47950D01*
X175632Y48233D01*
X177167Y48628D01*
X178467Y49137D01*
X179530Y49758D01*
X180357Y50493D01*
X180947Y51340D01*
X181301Y52300D01*
X181420Y53374D01*
Y30008D01*
D02*
G37*
G36*
X115697Y52300D02*
X116051Y51340D01*
X116641Y50493D01*
X117468Y49758D01*
X118531Y49137D01*
X119831Y48628D01*
X121366Y48233D01*
X123138Y47950D01*
X125145Y47781D01*
X127390Y47724D01*
Y35913D01*
X125145Y35854D01*
X123138Y35677D01*
X121366Y35382D01*
X119831Y34969D01*
X118531Y34437D01*
X117468Y33787D01*
X116641Y33020D01*
X116051Y32134D01*
X115697Y31130D01*
X115578Y30008D01*
Y53374D01*
X115697Y52300D01*
D02*
G37*
G36*
X287374Y24016D02*
X287173Y23945D01*
X286996Y23826D01*
X286842Y23660D01*
X286713Y23446D01*
X286606Y23185D01*
X286524Y22876D01*
X286465Y22520D01*
X286429Y22117D01*
X286417Y21666D01*
X284055D01*
X284043Y22117D01*
X284008Y22520D01*
X283949Y22876D01*
X283866Y23185D01*
X283760Y23446D01*
X283630Y23660D01*
X283476Y23826D01*
X283299Y23945D01*
X283098Y24016D01*
X282874Y24040D01*
X287598D01*
X287374Y24016D01*
D02*
G37*
G36*
X196331D02*
X196130Y23945D01*
X195953Y23826D01*
X195799Y23660D01*
X195669Y23446D01*
X195563Y23185D01*
X195480Y22876D01*
X195421Y22520D01*
X195386Y22117D01*
X195374Y21666D01*
X193012D01*
X193000Y22117D01*
X192965Y22520D01*
X192905Y22876D01*
X192823Y23185D01*
X192717Y23446D01*
X192587Y23660D01*
X192433Y23826D01*
X192256Y23945D01*
X192055Y24016D01*
X191831Y24040D01*
X196555D01*
X196331Y24016D01*
D02*
G37*
G36*
X286425Y16676D02*
X286490Y15954D01*
X286546Y15621D01*
X286619Y15307D01*
X286707Y15011D01*
X286812Y14735D01*
X286933Y14477D01*
X287070Y14238D01*
X287223Y14018D01*
X283250D01*
X283403Y14238D01*
X283540Y14477D01*
X283661Y14735D01*
X283765Y15011D01*
X283854Y15307D01*
X283926Y15621D01*
X283983Y15954D01*
X284023Y16306D01*
X284055Y17066D01*
X286417D01*
X286425Y16676D01*
D02*
G37*
G36*
X195382Y16578D02*
X195447Y15856D01*
X195503Y15522D01*
X195575Y15208D01*
X195664Y14913D01*
X195769Y14636D01*
X195889Y14379D01*
X196026Y14140D01*
X196179Y13919D01*
X192207D01*
X192359Y14140D01*
X192496Y14379D01*
X192617Y14636D01*
X192722Y14913D01*
X192810Y15208D01*
X192883Y15522D01*
X192939Y15856D01*
X192980Y16207D01*
X193012Y16967D01*
X195374D01*
X195382Y16578D01*
D02*
G37*
D16*
X354331Y374016D02*
G03*
X334646Y393701I-19685J0D01*
G01*
Y0D02*
G03*
X354331Y19685I0J19685D01*
G01*
X19685Y393701D02*
G03*
X0Y374016I0J-19685D01*
G01*
X0Y19685D02*
G03*
X19685Y0I19685J0D01*
G01*
X354331Y19685D02*
Y374016D01*
X19685Y0D02*
X334646D01*
X0Y19685D02*
Y374016D01*
X19685Y393701D02*
X334646D01*
D18*
X31693Y327165D02*
D03*
X103150Y376378D02*
D03*
X193898D02*
D03*
X194193Y12402D02*
D03*
X285236Y12500D02*
D03*
X67323Y376083D02*
D03*
D25*
X23425Y194488D02*
D03*
Y201772D02*
D03*
Y102756D02*
D03*
Y110039D02*
D03*
D31*
X12697Y109055D02*
D03*
Y103150D02*
D03*
Y195571D02*
D03*
Y201476D02*
D03*
D62*
X181890Y375984D02*
D03*
X117717Y375197D02*
D03*
X109055D02*
D03*
X136221Y354709D02*
D03*
X139764Y368504D02*
D03*
X172933Y356398D02*
D03*
X161417Y367717D02*
D03*
X68898Y288976D02*
D03*
X258071Y159941D02*
D03*
X128463Y125068D02*
D03*
Y128119D02*
D03*
X239469Y191043D02*
D03*
X240059Y200098D02*
D03*
X203248Y202756D02*
D03*
X198228Y202559D02*
D03*
X201969Y220571D02*
D03*
X198228Y209941D02*
D03*
X179134Y220571D02*
D03*
X165354Y138583D02*
D03*
X90453Y129528D02*
D03*
X90748Y125000D02*
D03*
X86614Y125098D02*
D03*
X86811Y129626D02*
D03*
X174705Y138476D02*
D03*
X137304Y217225D02*
D03*
X132776Y204233D02*
D03*
X120473Y321261D02*
D03*
X115847D02*
D03*
X115862Y325642D02*
D03*
X115847Y330217D02*
D03*
X227461Y279627D02*
D03*
X270473Y261418D02*
D03*
X192127Y271654D02*
D03*
X240060Y280906D02*
D03*
X232087Y119193D02*
D03*
X292618Y222441D02*
D03*
X286417Y255217D02*
D03*
X85827Y244094D02*
D03*
X251181Y233800D02*
D03*
X261614Y263484D02*
D03*
X152067Y272441D02*
D03*
X180905Y282579D02*
D03*
X170722Y223816D02*
D03*
X120571Y227264D02*
D03*
X170079Y317717D02*
D03*
X121260Y356398D02*
D03*
Y360827D02*
D03*
X125689Y356398D02*
D03*
X130413D02*
D03*
Y360827D02*
D03*
X125689D02*
D03*
X106299Y251969D02*
D03*
X101673Y252067D02*
D03*
Y256594D02*
D03*
X106201Y256496D02*
D03*
Y261122D02*
D03*
X101772Y261221D02*
D03*
X98130Y142224D02*
D03*
Y150492D02*
D03*
X99114Y155315D02*
D03*
X94144D02*
D03*
X89173D02*
D03*
X84203D02*
D03*
X79232D02*
D03*
X137992Y137894D02*
D03*
X134206Y111319D02*
D03*
X134153Y115059D02*
D03*
Y119291D02*
D03*
X121752Y114469D02*
D03*
X129134Y133465D02*
D03*
X122343D02*
D03*
X115748Y135335D02*
D03*
X110531D02*
D03*
X118110Y140650D02*
D03*
Y145571D02*
D03*
Y150492D02*
D03*
D63*
X136221Y328150D02*
Y354709D01*
Y328150D02*
X146653Y317717D01*
X168504Y360827D02*
X172933Y356398D01*
X130413Y360827D02*
X168504D01*
X130489Y356473D02*
Y356762D01*
X130413Y356398D02*
X130489Y356473D01*
X139813Y368553D02*
Y375773D01*
X139827Y375787D01*
X139764Y368504D02*
X139813Y368553D01*
X139827Y375787D02*
X153051D01*
X161417Y367717D02*
Y377461D01*
X157475Y381403D02*
X161417Y377461D01*
X48031Y376083D02*
X67323D01*
X43270Y371322D02*
X48031Y376083D01*
X68898Y283169D02*
X85827Y266240D01*
X68898Y283169D02*
Y288976D01*
X13061Y201476D02*
X13160Y201575D01*
Y216073D01*
X12697Y201476D02*
X13061D01*
X13160Y216073D02*
X13622Y216535D01*
X16339Y195472D02*
X17323Y194488D01*
X23425D01*
X12697Y195571D02*
X12795Y195472D01*
X16339D01*
X227461Y267224D02*
Y279626D01*
X221358Y261122D02*
X227461Y267224D01*
X106201Y261122D02*
X221358D01*
X13061Y109055D02*
X13160Y109153D01*
X12697Y109055D02*
X13061D01*
X13160Y109153D02*
Y125207D01*
X13622Y125669D01*
X12697Y103150D02*
X13189D01*
X13583Y102756D02*
X23425D01*
X13189Y103150D02*
X13583Y102756D01*
X23524Y125571D02*
X23622Y125669D01*
X23425Y110039D02*
X23524Y110138D01*
Y125571D01*
X189768Y41819D02*
X194193Y37394D01*
X85827Y244094D02*
Y266240D01*
X190268Y353681D02*
X193898Y357311D01*
Y376378D01*
X103150Y348721D02*
Y376378D01*
X102854Y348425D02*
X103150Y348721D01*
X31496Y370079D02*
X32739Y371322D01*
X43270D01*
X194193Y12402D02*
Y37394D01*
X285236Y12500D02*
Y38504D01*
X285433Y38701D01*
X257382Y240001D02*
Y254035D01*
X251181Y233800D02*
X257382Y240001D01*
Y254035D02*
X261614Y258268D01*
Y263484D01*
X152067Y272441D02*
X152264Y272244D01*
X156988D01*
X167323Y282579D01*
X180905D01*
X135728Y223819D02*
X170866D01*
X132283Y227264D02*
X135728Y223819D01*
X120571Y227264D02*
X132283D01*
X146653Y317717D02*
X170079D01*
X153051Y381496D02*
X153144Y381403D01*
X157475D01*
X139862Y381496D02*
X153051D01*
D64*
X165354Y118799D02*
Y138583D01*
X161614Y115059D02*
X165354Y118799D01*
X134153Y115059D02*
X161614D01*
X23425Y201772D02*
X23524Y201870D01*
Y216437D01*
X23622Y216535D01*
D66*
X258071Y159941D02*
Y187894D01*
X232087Y102264D02*
Y119193D01*
X194144Y64321D02*
X232087Y102264D01*
X194144Y38701D02*
Y64321D01*
X258071Y187894D02*
X292618Y222441D01*
X286319Y255315D02*
Y350177D01*
Y255315D02*
X286417Y255217D01*
X285433Y351063D02*
X286319Y350177D01*
D68*
X334646Y374016D02*
D03*
X19685Y19685D02*
D03*
Y307087D02*
D03*
X334646Y19685D02*
D03*
D69*
X13622Y165669D02*
D03*
Y135669D02*
D03*
Y155669D02*
D03*
Y145669D02*
D03*
X23622Y165669D02*
D03*
X23622Y155669D02*
D03*
Y125669D02*
D03*
Y145669D02*
D03*
X23622Y135669D02*
D03*
Y216535D02*
D03*
X13622Y226535D02*
D03*
X23622D02*
D03*
D70*
X13622Y125669D02*
D03*
X13622Y216535D02*
D03*
D71*
X50000Y358268D02*
D03*
D72*
X31496Y346457D02*
D03*
D73*
Y370079D02*
D03*
D74*
X19685Y266653D02*
D03*
Y276654D02*
D03*
D75*
X71358Y335906D02*
D03*
X253937D02*
D03*
X225640Y53858D02*
D03*
D76*
X71358Y86221D02*
D03*
X134350Y303543D02*
D03*
X253937Y86221D02*
D03*
X316929Y303543D02*
D03*
X225640D02*
D03*
X162648Y86221D02*
D03*
D77*
X139862Y375787D02*
D03*
X139862Y381496D02*
D03*
X153051Y375787D02*
D03*
X153051Y381496D02*
D03*
D78*
X102854Y38701D02*
D03*
Y351063D02*
D03*
X285433Y38701D02*
D03*
Y351063D02*
D03*
X194144D02*
D03*
Y38701D02*
D03*
D79*
X194811Y193405D02*
X257961Y130256D01*
X105118Y209941D02*
X121654Y193405D01*
X194811D01*
X105118Y209941D02*
Y235957D01*
X257961Y130256D02*
X257961D01*
X285433Y102783D01*
Y38201D02*
Y102783D01*
X190518Y353431D02*
X277518D01*
X31496Y324016D02*
X40059Y315453D01*
X95669D01*
X102854Y322638D01*
Y348425D01*
X31496Y324016D02*
Y346457D01*
X103268Y41819D02*
X189768D01*
X102768Y42319D02*
X103268Y41819D01*
X277518Y353431D02*
X277768Y353181D01*
X190268Y353681D02*
X190518Y353431D01*
M02*
