G04*
G04 #@! TF.GenerationSoftware,Altium Limited,Altium Designer,21.1.1 (26)*
G04*
G04 Layer_Color=8421504*
%FSLAX25Y25*%
%MOIN*%
G70*
G04*
G04 #@! TF.SameCoordinates,8D04B9CC-E963-441F-A638-D17954596142*
G04*
G04*
G04 #@! TF.FilePolarity,Positive*
G04*
G01*
G75*
%ADD16C,0.00591*%
G04:AMPARAMS|DCode=17|XSize=61.81mil|YSize=16.14mil|CornerRadius=2.02mil|HoleSize=0mil|Usage=FLASHONLY|Rotation=180.000|XOffset=0mil|YOffset=0mil|HoleType=Round|Shape=RoundedRectangle|*
%AMROUNDEDRECTD17*
21,1,0.06181,0.01211,0,0,180.0*
21,1,0.05778,0.01614,0,0,180.0*
1,1,0.00404,-0.02889,0.00605*
1,1,0.00404,0.02889,0.00605*
1,1,0.00404,0.02889,-0.00605*
1,1,0.00404,-0.02889,-0.00605*
%
%ADD17ROUNDEDRECTD17*%
%ADD18C,0.05000*%
%ADD19R,0.04331X0.02362*%
%ADD20R,0.02205X0.02717*%
%ADD21R,0.02717X0.02205*%
%ADD22R,0.02835X0.07008*%
%ADD23R,0.05118X0.11024*%
%ADD24R,0.04134X0.06693*%
%ADD25R,0.05315X0.03740*%
%ADD26R,0.02756X0.02559*%
%ADD27R,0.08661X0.10630*%
%ADD28R,0.07087X0.04528*%
%ADD29R,0.05906X0.04724*%
%ADD30R,0.04724X0.05906*%
%ADD31R,0.03543X0.02559*%
%ADD32R,0.03740X0.05315*%
%ADD33R,0.06693X0.04134*%
%ADD34R,0.16535X0.18150*%
D16*
X354331Y374016D02*
G03*
X334646Y393701I-19685J0D01*
G01*
Y0D02*
G03*
X354331Y19685I0J19685D01*
G01*
X19685Y393701D02*
G03*
X0Y374016I0J-19685D01*
G01*
X0Y19685D02*
G03*
X19685Y0I19685J0D01*
G01*
X354331Y19685D02*
Y374016D01*
X19685Y0D02*
X334646D01*
X0Y19685D02*
Y374016D01*
X19685Y393701D02*
X334646D01*
D17*
X210709Y198721D02*
D03*
Y201279D02*
D03*
Y203839D02*
D03*
Y206398D02*
D03*
Y208957D02*
D03*
Y211516D02*
D03*
Y214075D02*
D03*
Y216634D02*
D03*
Y219193D02*
D03*
Y221752D02*
D03*
Y224311D02*
D03*
Y226870D02*
D03*
X188110D02*
D03*
Y224311D02*
D03*
Y221752D02*
D03*
Y219193D02*
D03*
Y216634D02*
D03*
Y214075D02*
D03*
Y211516D02*
D03*
Y208957D02*
D03*
Y206398D02*
D03*
Y203839D02*
D03*
Y201279D02*
D03*
Y198721D02*
D03*
D18*
X117913Y218012D02*
D03*
X194980Y183366D02*
D03*
X270669Y274410D02*
D03*
X187697Y253248D02*
D03*
D19*
X145079Y131890D02*
D03*
Y128150D02*
D03*
Y124409D02*
D03*
X134449D02*
D03*
Y128150D02*
D03*
Y131890D02*
D03*
D20*
X73012Y243110D02*
D03*
X63406D02*
D03*
D21*
X56299Y272165D02*
D03*
Y281772D02*
D03*
D22*
X126260Y329075D02*
D03*
X131260D02*
D03*
X136260D02*
D03*
X141260D02*
D03*
X126260Y347500D02*
D03*
X131260D02*
D03*
X136260D02*
D03*
X141260D02*
D03*
D23*
X113189Y257677D02*
D03*
X132087D02*
D03*
D24*
X286417Y198031D02*
D03*
X275197D02*
D03*
X286417Y245177D02*
D03*
X275197D02*
D03*
X286417Y221555D02*
D03*
X275197D02*
D03*
D25*
X174114Y125394D02*
D03*
Y132677D02*
D03*
X225984Y183858D02*
D03*
X225984Y176575D02*
D03*
X215335Y264265D02*
D03*
Y271548D02*
D03*
X164764Y280020D02*
D03*
Y287303D02*
D03*
X144390Y200197D02*
D03*
Y207480D02*
D03*
X227544Y264265D02*
D03*
Y271548D02*
D03*
X155413Y207480D02*
D03*
X155413Y200197D02*
D03*
X155610Y183366D02*
D03*
Y190650D02*
D03*
X151969Y287303D02*
D03*
X151969Y280020D02*
D03*
X43110Y272743D02*
D03*
Y280026D02*
D03*
X180020Y347638D02*
D03*
Y340354D02*
D03*
X161221Y330413D02*
D03*
Y337697D02*
D03*
X181791Y132677D02*
D03*
Y125394D02*
D03*
D26*
X95756Y272224D02*
D03*
Y277421D02*
D03*
X95756Y282618D02*
D03*
Y287815D02*
D03*
X74083Y272224D02*
D03*
Y277421D02*
D03*
Y282618D02*
D03*
X74083Y287815D02*
D03*
X111014Y277421D02*
D03*
Y272224D02*
D03*
Y282618D02*
D03*
Y287815D02*
D03*
X132687Y282618D02*
D03*
Y272224D02*
D03*
Y277421D02*
D03*
X132687Y287815D02*
D03*
D27*
X80709Y125984D02*
D03*
Y146063D02*
D03*
D28*
X113681Y117717D02*
D03*
Y129528D02*
D03*
X104331Y117717D02*
D03*
Y129528D02*
D03*
D29*
X122146Y127165D02*
D03*
Y120079D02*
D03*
X240072Y264764D02*
D03*
Y271850D02*
D03*
X263779Y242421D02*
D03*
Y249508D02*
D03*
X263779Y198228D02*
D03*
Y205315D02*
D03*
X263779Y219390D02*
D03*
Y226476D02*
D03*
X203445Y264764D02*
D03*
Y271850D02*
D03*
X251772Y242421D02*
D03*
Y249508D02*
D03*
X161221Y348425D02*
D03*
Y355512D02*
D03*
D30*
X102362Y238090D02*
D03*
X95276D02*
D03*
X225689Y201673D02*
D03*
X232776D02*
D03*
X126279Y237992D02*
D03*
X119193D02*
D03*
X232874Y192224D02*
D03*
X225787D02*
D03*
X230217Y245374D02*
D03*
X223130D02*
D03*
X144783Y143602D02*
D03*
X137697D02*
D03*
X103828Y141437D02*
D03*
X110915D02*
D03*
X103828Y149705D02*
D03*
X110915D02*
D03*
D31*
X297244Y189862D02*
D03*
X297244Y195768D02*
D03*
X297244Y212205D02*
D03*
X297244Y218110D02*
D03*
X297244Y237500D02*
D03*
Y243406D02*
D03*
D32*
X277362Y233169D02*
D03*
X284646D02*
D03*
X65151Y255315D02*
D03*
X72435D02*
D03*
X149213Y219291D02*
D03*
X156496Y219291D02*
D03*
X277362Y210039D02*
D03*
X284646D02*
D03*
X277362Y186417D02*
D03*
X284646Y186417D02*
D03*
X102461Y227264D02*
D03*
X95177Y227264D02*
D03*
X72435Y231791D02*
D03*
X65151Y231791D02*
D03*
X156398Y317913D02*
D03*
X163681D02*
D03*
X158071Y130020D02*
D03*
X165354D02*
D03*
D33*
X251673Y274704D02*
D03*
Y263484D02*
D03*
D34*
X86288Y280020D02*
D03*
X120482Y280020D02*
D03*
M02*
