G04*
G04 #@! TF.GenerationSoftware,Altium Limited,Altium Designer,21.1.1 (26)*
G04*
G04 Layer_Physical_Order=2*
G04 Layer_Color=32768*
%FSLAX25Y25*%
%MOIN*%
G70*
G04*
G04 #@! TF.SameCoordinates,FA9CCD81-432D-44E0-922B-AB4CBE4C0170*
G04*
G04*
G04 #@! TF.FilePolarity,Negative*
G04*
G01*
G75*
%ADD15C,0.00591*%
%ADD70C,0.05906*%
%ADD77C,0.04000*%
%ADD78C,0.07874*%
%ADD79C,0.15945*%
%ADD80C,0.11772*%
%ADD81C,0.06693*%
%ADD82R,0.14173X0.06299*%
%ADD83R,0.16142X0.06299*%
%ADD84C,0.14961*%
%ADD85C,0.03937*%
D15*
X354331Y374016D02*
G03*
X334646Y393701I-19685J0D01*
G01*
Y0D02*
G03*
X354331Y19685I0J19685D01*
G01*
X19685Y393701D02*
G03*
X0Y374016I0J-19685D01*
G01*
X0Y19685D02*
G03*
X19685Y0I19685J0D01*
G01*
X354331Y19685D02*
Y374016D01*
X19685Y0D02*
X334646D01*
X0Y19685D02*
Y374016D01*
X19685Y393701D02*
X334646D01*
D70*
X23622Y135669D02*
D03*
X23622Y145669D02*
D03*
Y125669D02*
D03*
Y155669D02*
D03*
X23622Y165669D02*
D03*
Y226535D02*
D03*
Y216535D02*
D03*
D77*
X19685Y393701D02*
G03*
X0Y374016I0J-19685D01*
G01*
X354331D02*
G03*
X334646Y393701I-19685J0D01*
G01*
Y0D02*
G03*
X354331Y19685I0J19685D01*
G01*
X0D02*
G03*
X19685Y0I19685J0D01*
G01*
X0Y19685D02*
Y374016D01*
X0D01*
X19685Y393701D02*
X334646D01*
X354331Y374016D02*
X354331D01*
Y19685D02*
Y374016D01*
X334646Y0D02*
Y0D01*
X19685Y0D02*
X334646D01*
X19685D02*
Y0D01*
D78*
X61319Y311910D02*
X61319Y194587D01*
X61319Y311910D02*
X147539D01*
X61319Y194587D02*
X85138Y170768D01*
X167028Y331398D02*
Y391831D01*
X147539Y311910D02*
X167028Y331398D01*
X591Y89075D02*
X186122D01*
X197244Y100197D01*
Y157087D01*
X183563Y170768D02*
X197244Y157087D01*
X85138Y170768D02*
X183563D01*
D79*
X162648Y86221D02*
D03*
X225640Y303543D02*
D03*
X134350D02*
D03*
X71358Y86221D02*
D03*
X316929Y303543D02*
D03*
X253937Y86221D02*
D03*
D80*
X225640Y53858D02*
D03*
X71358Y335906D02*
D03*
X253937D02*
D03*
D81*
X19685Y276654D02*
D03*
D82*
X31496Y370079D02*
D03*
D83*
Y346457D02*
D03*
D84*
X334646Y374016D02*
D03*
Y19685D02*
D03*
X19685Y307087D02*
D03*
Y19685D02*
D03*
D85*
X258071Y159941D02*
D03*
X128463Y125068D02*
D03*
Y128119D02*
D03*
X165354Y138583D02*
D03*
X90453Y129528D02*
D03*
X90748Y125000D02*
D03*
X86614Y125098D02*
D03*
X86811Y129626D02*
D03*
X120473Y321261D02*
D03*
X115847D02*
D03*
X115862Y325642D02*
D03*
X115847Y330217D02*
D03*
X227461Y279627D02*
D03*
X232087Y119193D02*
D03*
X292618Y222441D02*
D03*
X286417Y255217D02*
D03*
X85827Y244094D02*
D03*
X69291Y293504D02*
D03*
X251181Y233800D02*
D03*
X261614Y263484D02*
D03*
X152067Y272441D02*
D03*
X180905Y282579D02*
D03*
X170722Y223816D02*
D03*
X120571Y227264D02*
D03*
X170079Y317717D02*
D03*
X121260Y356398D02*
D03*
Y360827D02*
D03*
X125689Y356398D02*
D03*
X130413D02*
D03*
Y360827D02*
D03*
X125689D02*
D03*
X136811Y356299D02*
D03*
X106299Y251969D02*
D03*
X101673Y252067D02*
D03*
Y256594D02*
D03*
X106201Y256496D02*
D03*
Y261122D02*
D03*
X101772Y261221D02*
D03*
X98130Y142224D02*
D03*
Y150492D02*
D03*
X99114Y155315D02*
D03*
X94144D02*
D03*
X89173D02*
D03*
X84203D02*
D03*
X79232D02*
D03*
X137992Y137894D02*
D03*
X134206Y111319D02*
D03*
X134153Y115059D02*
D03*
Y119291D02*
D03*
X121752Y114469D02*
D03*
M02*
