G04*
G04 #@! TF.GenerationSoftware,Altium Limited,Altium Designer,21.1.1 (26)*
G04*
G04 Layer_Color=32896*
%FSLAX25Y25*%
%MOIN*%
G70*
G04*
G04 #@! TF.SameCoordinates,FA9CCD81-432D-44E0-922B-AB4CBE4C0170*
G04*
G04*
G04 #@! TF.FilePolarity,Positive*
G04*
G01*
G75*
%ADD12C,0.01575*%
%ADD15C,0.00591*%
D12*
X411024Y415570D02*
X413647D01*
X412335D01*
Y423441D01*
X411024Y422129D01*
X417583Y415570D02*
Y416882D01*
X418895D01*
Y415570D01*
X417583D01*
X432014Y423441D02*
Y415570D01*
X435950D01*
X437262Y416882D01*
Y418193D01*
X435950Y419506D01*
X432014D01*
X435950D01*
X437262Y420817D01*
Y422129D01*
X435950Y423441D01*
X432014D01*
X441198Y415570D02*
X443821D01*
X445133Y416882D01*
Y419506D01*
X443821Y420817D01*
X441198D01*
X439886Y419506D01*
Y416882D01*
X441198Y415570D01*
X449069Y420817D02*
X451693D01*
X453005Y419506D01*
Y415570D01*
X449069D01*
X447757Y416882D01*
X449069Y418193D01*
X453005D01*
X455629Y420817D02*
Y415570D01*
Y418193D01*
X456941Y419506D01*
X458252Y420817D01*
X459564D01*
X468748Y423441D02*
Y415570D01*
X464812D01*
X463500Y416882D01*
Y419506D01*
X464812Y420817D01*
X468748D01*
X479243Y423441D02*
X484491D01*
X481867D01*
Y415570D01*
X487115Y423441D02*
Y415570D01*
Y419506D01*
X488426Y420817D01*
X491050D01*
X492362Y419506D01*
Y415570D01*
X494986D02*
X497610D01*
X496298D01*
Y420817D01*
X494986D01*
X506793D02*
X502857D01*
X501546Y419506D01*
Y416882D01*
X502857Y415570D01*
X506793D01*
X509417D02*
Y423441D01*
Y418193D02*
X513353Y420817D01*
X509417Y418193D02*
X513353Y415570D01*
X517289D02*
Y420817D01*
X521224D01*
X522536Y419506D01*
Y415570D01*
X529096D02*
X526472D01*
X525160Y416882D01*
Y419506D01*
X526472Y420817D01*
X529096D01*
X530408Y419506D01*
Y418193D01*
X525160D01*
X533032Y415570D02*
X536967D01*
X538279Y416882D01*
X536967Y418193D01*
X534343D01*
X533032Y419506D01*
X534343Y420817D01*
X538279D01*
X540903Y415570D02*
X544839D01*
X546151Y416882D01*
X544839Y418193D01*
X542215D01*
X540903Y419506D01*
X542215Y420817D01*
X546151D01*
X556646Y419506D02*
X561894D01*
X572389Y415570D02*
X575013D01*
X573701D01*
Y423441D01*
X572389Y422129D01*
X578948Y415570D02*
Y416882D01*
X580260D01*
Y415570D01*
X578948D01*
X590756Y423441D02*
X588132Y422129D01*
X585508Y419506D01*
Y416882D01*
X586820Y415570D01*
X589444D01*
X590756Y416882D01*
Y418193D01*
X589444Y419506D01*
X585508D01*
X593379Y415570D02*
Y420817D01*
X594691D01*
X596003Y419506D01*
Y415570D01*
Y419506D01*
X597315Y420817D01*
X598627Y419506D01*
Y415570D01*
X601251D02*
Y420817D01*
X602563D01*
X603875Y419506D01*
Y415570D01*
Y419506D01*
X605187Y420817D01*
X606499Y419506D01*
Y415570D01*
X416271Y402344D02*
X411024D01*
X416271Y407592D01*
Y408904D01*
X414959Y410216D01*
X412335D01*
X411024Y408904D01*
X418895Y402344D02*
Y403656D01*
X420207D01*
Y402344D01*
X418895D01*
X433326Y410216D02*
Y402344D01*
X437262D01*
X438574Y403656D01*
Y404968D01*
X437262Y406280D01*
X433326D01*
X437262D01*
X438574Y407592D01*
Y408904D01*
X437262Y410216D01*
X433326D01*
X442510Y402344D02*
X445133D01*
X446445Y403656D01*
Y406280D01*
X445133Y407592D01*
X442510D01*
X441198Y406280D01*
Y403656D01*
X442510Y402344D01*
X450381Y407592D02*
X453005D01*
X454317Y406280D01*
Y402344D01*
X450381D01*
X449069Y403656D01*
X450381Y404968D01*
X454317D01*
X456941Y407592D02*
Y402344D01*
Y404968D01*
X458252Y406280D01*
X459564Y407592D01*
X460876D01*
X470060Y410216D02*
Y402344D01*
X466124D01*
X464812Y403656D01*
Y406280D01*
X466124Y407592D01*
X470060D01*
X480555Y410216D02*
Y402344D01*
X484491D01*
X485803Y403656D01*
Y408904D01*
X484491Y410216D01*
X480555D01*
X488426Y402344D02*
X491050D01*
X489738D01*
Y407592D01*
X488426D01*
X494986Y402344D02*
Y407592D01*
X496298D01*
X497610Y406280D01*
Y402344D01*
Y406280D01*
X498922Y407592D01*
X500234Y406280D01*
Y402344D01*
X506793D02*
X504169D01*
X502857Y403656D01*
Y406280D01*
X504169Y407592D01*
X506793D01*
X508105Y406280D01*
Y404968D01*
X502857D01*
X510729Y402344D02*
Y407592D01*
X514665D01*
X515977Y406280D01*
Y402344D01*
X518601D02*
X522536D01*
X523848Y403656D01*
X522536Y404968D01*
X519912D01*
X518601Y406280D01*
X519912Y407592D01*
X523848D01*
X526472Y402344D02*
X529096D01*
X527784D01*
Y407592D01*
X526472D01*
X534343Y402344D02*
X536967D01*
X538279Y403656D01*
Y406280D01*
X536967Y407592D01*
X534343D01*
X533032Y406280D01*
Y403656D01*
X534343Y402344D01*
X540903D02*
Y407592D01*
X544839D01*
X546151Y406280D01*
Y402344D01*
X548774D02*
X552710D01*
X554022Y403656D01*
X552710Y404968D01*
X550086D01*
X548774Y406280D01*
X550086Y407592D01*
X554022D01*
X564517Y406280D02*
X569765D01*
X580260Y403656D02*
X581572Y402344D01*
X584196D01*
X585508Y403656D01*
Y408904D01*
X584196Y410216D01*
X581572D01*
X580260Y408904D01*
Y407592D01*
X581572Y406280D01*
X585508D01*
X588132Y408904D02*
X589444Y410216D01*
X592068D01*
X593380Y408904D01*
Y403656D01*
X592068Y402344D01*
X589444D01*
X588132Y403656D01*
Y408904D01*
X596003Y402344D02*
Y407592D01*
X597315D01*
X598627Y406280D01*
Y402344D01*
Y406280D01*
X599939Y407592D01*
X601251Y406280D01*
Y402344D01*
X603875D02*
Y407592D01*
X605187D01*
X606499Y406280D01*
Y402344D01*
Y406280D01*
X607811Y407592D01*
X609123Y406280D01*
Y402344D01*
X611746Y408904D02*
X616994Y403656D01*
X611746D02*
X616994Y408904D01*
X611746Y406280D02*
X616994D01*
X614370Y403656D02*
Y408904D01*
X619618Y402344D02*
X622242D01*
X620930D01*
Y410216D01*
X619618Y408904D01*
X626177D02*
X627489Y410216D01*
X630113D01*
X631425Y408904D01*
Y403656D01*
X630113Y402344D01*
X627489D01*
X626177Y403656D01*
Y408904D01*
X634049D02*
X635361Y410216D01*
X637985D01*
X639296Y408904D01*
Y403656D01*
X637985Y402344D01*
X635361D01*
X634049Y403656D01*
Y408904D01*
X641920Y402344D02*
Y407592D01*
X643232D01*
X644544Y406280D01*
Y402344D01*
Y406280D01*
X645856Y407592D01*
X647168Y406280D01*
Y402344D01*
X649792D02*
Y407592D01*
X651104D01*
X652416Y406280D01*
Y402344D01*
Y406280D01*
X653728Y407592D01*
X655040Y406280D01*
Y402344D01*
X411024Y395679D02*
X412335Y396991D01*
X414959D01*
X416271Y395679D01*
Y394367D01*
X414959Y393055D01*
X413647D01*
X414959D01*
X416271Y391743D01*
Y390431D01*
X414959Y389119D01*
X412335D01*
X411024Y390431D01*
X418895Y389119D02*
Y390431D01*
X420207D01*
Y389119D01*
X418895D01*
X437262D02*
Y396991D01*
X433326Y393055D01*
X438574D01*
X449069D02*
X454317D01*
X464812Y396991D02*
Y389119D01*
X470060D01*
X473995Y394367D02*
X476619D01*
X477931Y393055D01*
Y389119D01*
X473995D01*
X472683Y390431D01*
X473995Y391743D01*
X477931D01*
X480555Y394367D02*
Y390431D01*
X481867Y389119D01*
X485803D01*
Y387807D01*
X484491Y386495D01*
X483179D01*
X485803Y389119D02*
Y394367D01*
X492362Y389119D02*
X489738D01*
X488426Y390431D01*
Y393055D01*
X489738Y394367D01*
X492362D01*
X493674Y393055D01*
Y391743D01*
X488426D01*
X496298Y394367D02*
Y389119D01*
Y391743D01*
X497610Y393055D01*
X498922Y394367D01*
X500234D01*
X517289Y395679D02*
X515977Y396991D01*
X513353D01*
X512041Y395679D01*
Y390431D01*
X513353Y389119D01*
X515977D01*
X517289Y390431D01*
X521224Y389119D02*
X523848D01*
X525160Y390431D01*
Y393055D01*
X523848Y394367D01*
X521224D01*
X519912Y393055D01*
Y390431D01*
X521224Y389119D01*
X527784D02*
Y394367D01*
X531720D01*
X533032Y393055D01*
Y389119D01*
X535655D02*
X539591D01*
X540903Y390431D01*
X539591Y391743D01*
X536967D01*
X535655Y393055D01*
X536967Y394367D01*
X540903D01*
X544839Y395679D02*
Y394367D01*
X543527D01*
X546151D01*
X544839D01*
Y390431D01*
X546151Y389119D01*
X550086Y394367D02*
Y389119D01*
Y391743D01*
X551398Y393055D01*
X552710Y394367D01*
X554022D01*
X557958D02*
Y390431D01*
X559270Y389119D01*
X563206D01*
Y394367D01*
X571077D02*
X567141D01*
X565829Y393055D01*
Y390431D01*
X567141Y389119D01*
X571077D01*
X575013Y395679D02*
Y394367D01*
X573701D01*
X576325D01*
X575013D01*
Y390431D01*
X576325Y389119D01*
X580260D02*
X582884D01*
X581572D01*
Y394367D01*
X580260D01*
X588132Y389119D02*
X590756D01*
X592068Y390431D01*
Y393055D01*
X590756Y394367D01*
X588132D01*
X586820Y393055D01*
Y390431D01*
X588132Y389119D01*
X594692D02*
Y394367D01*
X598627D01*
X599939Y393055D01*
Y389119D01*
X610434Y393055D02*
X615682D01*
X626177Y395679D02*
X627489Y396991D01*
X630113D01*
X631425Y395679D01*
Y394367D01*
X630113Y393055D01*
X628801D01*
X630113D01*
X631425Y391743D01*
Y390431D01*
X630113Y389119D01*
X627489D01*
X626177Y390431D01*
X639296Y396991D02*
X634049D01*
Y393055D01*
X636673Y394367D01*
X637985D01*
X639296Y393055D01*
Y390431D01*
X637985Y389119D01*
X635361D01*
X634049Y390431D01*
X641920Y394367D02*
Y390431D01*
X643232Y389119D01*
X647168D01*
Y394367D01*
X649792Y389119D02*
Y394367D01*
X651104D01*
X652416Y393055D01*
Y389119D01*
Y393055D01*
X653728Y394367D01*
X655040Y393055D01*
Y389119D01*
X414959Y373270D02*
Y381141D01*
X411024Y377206D01*
X416271D01*
X418895Y373270D02*
Y374582D01*
X420207D01*
Y373270D01*
X418895D01*
X433326D02*
Y381141D01*
X437262D01*
X438574Y379830D01*
Y377206D01*
X437262Y375894D01*
X433326D01*
X441198Y373270D02*
X443821D01*
X442510D01*
Y381141D01*
X441198D01*
X449069Y378518D02*
X451693D01*
X453005Y377206D01*
Y373270D01*
X449069D01*
X447757Y374582D01*
X449069Y375894D01*
X453005D01*
X456941Y379830D02*
Y378518D01*
X455629D01*
X458252D01*
X456941D01*
Y374582D01*
X458252Y373270D01*
X462188D02*
X464812D01*
X463500D01*
Y378518D01*
X462188D01*
X468748Y373270D02*
Y378518D01*
X472683D01*
X473995Y377206D01*
Y373270D01*
X479243Y370646D02*
X480555D01*
X481867Y371958D01*
Y378518D01*
X477931D01*
X476619Y377206D01*
Y374582D01*
X477931Y373270D01*
X481867D01*
X492362Y381141D02*
X497610D01*
X494986D01*
Y373270D01*
X500234Y381141D02*
Y373270D01*
Y377206D01*
X501546Y378518D01*
X504169D01*
X505481Y377206D01*
Y373270D01*
X508105D02*
X510729D01*
X509417D01*
Y378518D01*
X508105D01*
X519912D02*
X515977D01*
X514665Y377206D01*
Y374582D01*
X515977Y373270D01*
X519912D01*
X522536D02*
Y381141D01*
Y375894D02*
X526472Y378518D01*
X522536Y375894D02*
X526472Y373270D01*
X530408D02*
Y378518D01*
X534343D01*
X535655Y377206D01*
Y373270D01*
X542215D02*
X539591D01*
X538279Y374582D01*
Y377206D01*
X539591Y378518D01*
X542215D01*
X543527Y377206D01*
Y375894D01*
X538279D01*
X546151Y373270D02*
X550086D01*
X551398Y374582D01*
X550086Y375894D01*
X547463D01*
X546151Y377206D01*
X547463Y378518D01*
X551398D01*
X554022Y373270D02*
X557958D01*
X559270Y374582D01*
X557958Y375894D01*
X555334D01*
X554022Y377206D01*
X555334Y378518D01*
X559270D01*
X569765Y373270D02*
Y378518D01*
X571077D01*
X572389Y377206D01*
Y373270D01*
Y377206D01*
X573701Y378518D01*
X575013Y377206D01*
Y373270D01*
X577637D02*
X580260D01*
X578948D01*
Y378518D01*
X577637D01*
X584196Y373270D02*
Y378518D01*
X588132D01*
X589444Y377206D01*
Y373270D01*
X592068D02*
X594691D01*
X593379D01*
Y378518D01*
X592068D01*
X598627Y373270D02*
Y378518D01*
X599939D01*
X601251Y377206D01*
Y373270D01*
Y377206D01*
X602563Y378518D01*
X603875Y377206D01*
Y373270D01*
X606499Y378518D02*
Y374582D01*
X607811Y373270D01*
X611746D01*
Y378518D01*
X614370Y373270D02*
Y378518D01*
X615682D01*
X616994Y377206D01*
Y373270D01*
Y377206D01*
X618306Y378518D01*
X619618Y377206D01*
Y373270D01*
X630113Y377206D02*
X635361D01*
X651104Y373270D02*
X645856D01*
X651104Y378518D01*
Y379830D01*
X649792Y381141D01*
X647168D01*
X645856Y379830D01*
X658975Y381141D02*
X653727D01*
Y377206D01*
X656351Y378518D01*
X657663D01*
X658975Y377206D01*
Y374582D01*
X657663Y373270D01*
X655040D01*
X653727Y374582D01*
X661599Y378518D02*
Y374582D01*
X662911Y373270D01*
X666847D01*
Y378518D01*
X669471Y373270D02*
Y378518D01*
X670782D01*
X672094Y377206D01*
Y373270D01*
Y377206D01*
X673406Y378518D01*
X674718Y377206D01*
Y373270D01*
X416271Y365292D02*
X411024D01*
Y361357D01*
X413647Y362668D01*
X414959D01*
X416271Y361357D01*
Y358733D01*
X414959Y357421D01*
X412335D01*
X411024Y358733D01*
X418895Y357421D02*
Y358733D01*
X420207D01*
Y357421D01*
X418895D01*
X438574Y363980D02*
X437262Y365292D01*
X434638D01*
X433326Y363980D01*
Y362668D01*
X434638Y361357D01*
X437262D01*
X438574Y360045D01*
Y358733D01*
X437262Y357421D01*
X434638D01*
X433326Y358733D01*
X442510Y357421D02*
X445133D01*
X446445Y358733D01*
Y361357D01*
X445133Y362668D01*
X442510D01*
X441198Y361357D01*
Y358733D01*
X442510Y357421D01*
X449069D02*
X451693D01*
X450381D01*
Y365292D01*
X449069D01*
X460876D02*
Y357421D01*
X456941D01*
X455629Y358733D01*
Y361357D01*
X456941Y362668D01*
X460876D01*
X467436Y357421D02*
X464812D01*
X463500Y358733D01*
Y361357D01*
X464812Y362668D01*
X467436D01*
X468748Y361357D01*
Y360045D01*
X463500D01*
X471372Y362668D02*
Y357421D01*
Y360045D01*
X472683Y361357D01*
X473995Y362668D01*
X475307D01*
X487115Y357421D02*
Y365292D01*
X489738Y362668D01*
X492362Y365292D01*
Y357421D01*
X496298Y362668D02*
X498922D01*
X500234Y361357D01*
Y357421D01*
X496298D01*
X494986Y358733D01*
X496298Y360045D01*
X500234D01*
X502857Y357421D02*
X506793D01*
X508105Y358733D01*
X506793Y360045D01*
X504169D01*
X502857Y361357D01*
X504169Y362668D01*
X508105D01*
X510729Y357421D02*
Y365292D01*
Y360045D02*
X514665Y362668D01*
X510729Y360045D02*
X514665Y357421D01*
X526472Y361357D02*
X531720D01*
X547463Y363980D02*
X546151Y365292D01*
X543527D01*
X542215Y363980D01*
Y358733D01*
X543527Y357421D01*
X546151D01*
X547463Y358733D01*
Y361357D01*
X544839D01*
X550086Y362668D02*
Y357421D01*
Y360045D01*
X551398Y361357D01*
X552710Y362668D01*
X554022D01*
X561894Y357421D02*
X559270D01*
X557958Y358733D01*
Y361357D01*
X559270Y362668D01*
X561894D01*
X563206Y361357D01*
Y360045D01*
X557958D01*
X569765Y357421D02*
X567141D01*
X565829Y358733D01*
Y361357D01*
X567141Y362668D01*
X569765D01*
X571077Y361357D01*
Y360045D01*
X565829D01*
X573701Y357421D02*
Y362668D01*
X577637D01*
X578948Y361357D01*
Y357421D01*
X594692Y363980D02*
X593380Y365292D01*
X590756D01*
X589444Y363980D01*
Y358733D01*
X590756Y357421D01*
X593380D01*
X594692Y358733D01*
X598627Y357421D02*
X601251D01*
X602563Y358733D01*
Y361357D01*
X601251Y362668D01*
X598627D01*
X597315Y361357D01*
Y358733D01*
X598627Y357421D01*
X605187D02*
X607811D01*
X606499D01*
Y365292D01*
X605187D01*
X613058Y357421D02*
X615682D01*
X616994Y358733D01*
Y361357D01*
X615682Y362668D01*
X613058D01*
X611746Y361357D01*
Y358733D01*
X613058Y357421D01*
X619618Y362668D02*
Y358733D01*
X620930Y357421D01*
X624865D01*
Y362668D01*
X627489D02*
Y357421D01*
Y360045D01*
X628801Y361357D01*
X630113Y362668D01*
X631425D01*
X416271Y352067D02*
X413647Y350755D01*
X411024Y348131D01*
Y345508D01*
X412335Y344196D01*
X414959D01*
X416271Y345508D01*
Y346819D01*
X414959Y348131D01*
X411024D01*
X418895Y344196D02*
Y345508D01*
X420207D01*
Y344196D01*
X418895D01*
X433326Y352067D02*
Y344196D01*
X437262D01*
X438574Y345508D01*
Y346819D01*
X437262Y348131D01*
X433326D01*
X437262D01*
X438574Y349443D01*
Y350755D01*
X437262Y352067D01*
X433326D01*
X442510Y344196D02*
X445133D01*
X446445Y345508D01*
Y348131D01*
X445133Y349443D01*
X442510D01*
X441198Y348131D01*
Y345508D01*
X442510Y344196D01*
X450381Y349443D02*
X453005D01*
X454317Y348131D01*
Y344196D01*
X450381D01*
X449069Y345508D01*
X450381Y346819D01*
X454317D01*
X456941Y349443D02*
Y344196D01*
Y346819D01*
X458252Y348131D01*
X459564Y349443D01*
X460876D01*
X470060Y352067D02*
Y344196D01*
X466124D01*
X464812Y345508D01*
Y348131D01*
X466124Y349443D01*
X470060D01*
X480555Y352067D02*
Y344196D01*
Y348131D01*
X481867Y349443D01*
X484491D01*
X485803Y348131D01*
Y344196D01*
X489738Y349443D02*
X492362D01*
X493674Y348131D01*
Y344196D01*
X489738D01*
X488426Y345508D01*
X489738Y346819D01*
X493674D01*
X496298Y344196D02*
X500234D01*
X501546Y345508D01*
X500234Y346819D01*
X497610D01*
X496298Y348131D01*
X497610Y349443D01*
X501546D01*
X513353Y350755D02*
Y349443D01*
X512041D01*
X514665D01*
X513353D01*
Y345508D01*
X514665Y344196D01*
X519912D02*
X522536D01*
X523848Y345508D01*
Y348131D01*
X522536Y349443D01*
X519912D01*
X518601Y348131D01*
Y345508D01*
X519912Y344196D01*
X534343Y352067D02*
Y344196D01*
X538279D01*
X539591Y345508D01*
Y346819D01*
Y348131D01*
X538279Y349443D01*
X534343D01*
X546151Y344196D02*
X543527D01*
X542215Y345508D01*
Y348131D01*
X543527Y349443D01*
X546151D01*
X547463Y348131D01*
Y346819D01*
X542215D01*
X557958Y352067D02*
Y344196D01*
Y348131D01*
X559270Y349443D01*
X561894D01*
X563206Y348131D01*
Y344196D01*
X567141D02*
X569765D01*
X571077Y345508D01*
Y348131D01*
X569765Y349443D01*
X567141D01*
X565829Y348131D01*
Y345508D01*
X567141Y344196D01*
X575013Y350755D02*
Y349443D01*
X573701D01*
X576325D01*
X575013D01*
Y345508D01*
X576325Y344196D01*
X589444Y349443D02*
X592068D01*
X593380Y348131D01*
Y344196D01*
X589444D01*
X588132Y345508D01*
X589444Y346819D01*
X593380D01*
X596003Y344196D02*
X598627D01*
X597315D01*
Y349443D01*
X596003D01*
X602563D02*
Y344196D01*
Y346819D01*
X603875Y348131D01*
X605187Y349443D01*
X606499D01*
X618306Y344196D02*
X620930D01*
X619618D01*
Y352067D01*
X618306D01*
X628801Y344196D02*
X626177D01*
X624865Y345508D01*
Y348131D01*
X626177Y349443D01*
X628801D01*
X630113Y348131D01*
Y346819D01*
X624865D01*
X632737Y349443D02*
X635361Y344196D01*
X637985Y349443D01*
X644544Y344196D02*
X641920D01*
X640608Y345508D01*
Y348131D01*
X641920Y349443D01*
X644544D01*
X645856Y348131D01*
Y346819D01*
X640608D01*
X648480Y344196D02*
X651104D01*
X649792D01*
Y352067D01*
X648480D01*
X655040Y344196D02*
X657663D01*
X656351D01*
Y352067D01*
X655040D01*
X665535Y344196D02*
X662911D01*
X661599Y345508D01*
Y348131D01*
X662911Y349443D01*
X665535D01*
X666847Y348131D01*
Y346819D01*
X661599D01*
X674718Y352067D02*
Y344196D01*
X670782D01*
X669471Y345508D01*
Y348131D01*
X670782Y349443D01*
X674718D01*
X411024Y338842D02*
X416271D01*
Y337530D01*
X411024Y332282D01*
Y330970D01*
X418895D02*
Y332282D01*
X420207D01*
Y330970D01*
X418895D01*
X433326D02*
Y338842D01*
X437262D01*
X438574Y337530D01*
Y334906D01*
X437262Y333594D01*
X433326D01*
X441198Y336218D02*
Y330970D01*
Y333594D01*
X442510Y334906D01*
X443821Y336218D01*
X445133D01*
X449069Y330970D02*
X451693D01*
X450381D01*
Y336218D01*
X449069D01*
X455629Y330970D02*
Y336218D01*
X459564D01*
X460876Y334906D01*
Y330970D01*
X464812Y337530D02*
Y336218D01*
X463500D01*
X466124D01*
X464812D01*
Y332282D01*
X466124Y330970D01*
X477931Y338842D02*
Y330970D01*
X483179D01*
X489738D02*
X487115D01*
X485803Y332282D01*
Y334906D01*
X487115Y336218D01*
X489738D01*
X491050Y334906D01*
Y333594D01*
X485803D01*
X496298Y328346D02*
X497610D01*
X498922Y329658D01*
Y336218D01*
X494986D01*
X493674Y334906D01*
Y332282D01*
X494986Y330970D01*
X498922D01*
X505481D02*
X502857D01*
X501546Y332282D01*
Y334906D01*
X502857Y336218D01*
X505481D01*
X506793Y334906D01*
Y333594D01*
X501546D01*
X509417Y330970D02*
Y336218D01*
X513353D01*
X514665Y334906D01*
Y330970D01*
X522536Y338842D02*
Y330970D01*
X518601D01*
X517289Y332282D01*
Y334906D01*
X518601Y336218D01*
X522536D01*
X533032Y330970D02*
X535655D01*
X534343D01*
Y336218D01*
X533032D01*
X539591Y330970D02*
Y336218D01*
X543527D01*
X544839Y334906D01*
Y330970D01*
X555334Y338842D02*
Y330970D01*
X557958Y333594D01*
X560582Y330970D01*
Y338842D01*
X563205D02*
Y330970D01*
Y334906D01*
X564517Y336218D01*
X567141D01*
X568453Y334906D01*
Y330970D01*
X571077D02*
X573701D01*
X572389D01*
Y336218D01*
X571077D01*
X578948Y337530D02*
Y336218D01*
X577637D01*
X580260D01*
X578948D01*
Y332282D01*
X580260Y330970D01*
X588132D02*
X585508D01*
X584196Y332282D01*
Y334906D01*
X585508Y336218D01*
X588132D01*
X589444Y334906D01*
Y333594D01*
X584196D01*
X605187Y337530D02*
X603875Y338842D01*
X601251D01*
X599939Y337530D01*
Y332282D01*
X601251Y330970D01*
X603875D01*
X605187Y332282D01*
X609123Y330970D02*
X611746D01*
X613058Y332282D01*
Y334906D01*
X611746Y336218D01*
X609123D01*
X607811Y334906D01*
Y332282D01*
X609123Y330970D01*
X615682D02*
X618306D01*
X616994D01*
Y338842D01*
X615682D01*
X623554Y330970D02*
X626177D01*
X627489Y332282D01*
Y334906D01*
X626177Y336218D01*
X623554D01*
X622242Y334906D01*
Y332282D01*
X623554Y330970D01*
X630113Y336218D02*
Y332282D01*
X631425Y330970D01*
X635361D01*
Y336218D01*
X637985D02*
Y330970D01*
Y333594D01*
X639296Y334906D01*
X640608Y336218D01*
X641920D01*
D15*
X354331Y374016D02*
G03*
X334646Y393701I-19685J0D01*
G01*
Y0D02*
G03*
X354331Y19685I0J19685D01*
G01*
X19685Y393701D02*
G03*
X0Y374016I0J-19685D01*
G01*
X0Y19685D02*
G03*
X19685Y0I19685J0D01*
G01*
X354331Y19685D02*
Y374016D01*
X19685Y0D02*
X334646D01*
X0Y19685D02*
Y374016D01*
X19685Y393701D02*
X334646D01*
M02*
