G04*
G04 #@! TF.GenerationSoftware,Altium Limited,Altium Designer,21.1.1 (26)*
G04*
G04 Layer_Physical_Order=4*
G04 Layer_Color=16711680*
%FSLAX25Y25*%
%MOIN*%
G70*
G04*
G04 #@! TF.SameCoordinates,FA9CCD81-432D-44E0-922B-AB4CBE4C0170*
G04*
G04*
G04 #@! TF.FilePolarity,Positive*
G04*
G01*
G75*
%ADD15C,0.00591*%
%ADD18R,0.05315X0.03740*%
%ADD24R,0.03543X0.02559*%
%ADD31C,0.05000*%
%ADD62C,0.02756*%
%ADD63C,0.02362*%
%ADD64C,0.03937*%
%ADD65C,0.03150*%
%ADD68C,0.13583*%
%ADD69C,0.09409*%
%ADD70C,0.05906*%
%ADD71R,0.05906X0.05906*%
%ADD72C,0.07087*%
%ADD73O,0.17717X0.08858*%
%ADD74O,0.19685X0.09843*%
%ADD75O,0.08858X0.17717*%
%ADD76C,0.06000*%
%ADD78C,0.07874*%
%ADD87R,0.25472X0.29370*%
%ADD88R,0.04528X0.04134*%
%ADD89C,0.11811*%
G36*
X140256Y140059D02*
X140256Y135925D01*
X136713D01*
X136713Y126772D01*
X133858D01*
X131299Y124213D01*
X88681Y124213D01*
X85039Y120571D01*
X84842Y120768D01*
X76181D01*
Y131299D01*
X121356D01*
X121870Y131087D01*
X122816D01*
X123329Y131299D01*
X128148D01*
X128661Y131087D01*
X129607D01*
X130120Y131299D01*
X132087D01*
X132382Y131595D01*
X132382Y140059D01*
X140256Y140059D01*
D02*
G37*
G36*
X110827Y263583D02*
Y238386D01*
X99606D01*
Y263681D01*
X110827Y263583D01*
D02*
G37*
G36*
X39764Y354035D02*
X42913Y350886D01*
X42913Y339764D01*
X37303Y334154D01*
X25394Y334350D01*
X20276Y339469D01*
Y354035D01*
X39764Y354035D01*
D02*
G37*
G36*
X132579Y352264D02*
X132480Y352165D01*
X100000D01*
Y364370D01*
X100098Y364469D01*
X132579D01*
Y352264D01*
D02*
G37*
D15*
X354331Y374016D02*
G03*
X334646Y393701I-19685J0D01*
G01*
Y0D02*
G03*
X354331Y19685I0J19685D01*
G01*
X19685Y393701D02*
G03*
X0Y374016I0J-19685D01*
G01*
X0Y19685D02*
G03*
X19685Y0I19685J0D01*
G01*
X354331Y19685D02*
Y374016D01*
X19685Y0D02*
X334646D01*
X0Y19685D02*
Y374016D01*
X19685Y393701D02*
X334646D01*
D18*
X23425Y201772D02*
D03*
Y194488D02*
D03*
Y110039D02*
D03*
Y102756D02*
D03*
D24*
X12697Y201476D02*
D03*
Y195571D02*
D03*
Y103150D02*
D03*
Y109055D02*
D03*
D31*
X31693Y327165D02*
D03*
X285236Y12500D02*
D03*
X193898Y376378D02*
D03*
X194193Y12402D02*
D03*
X67323Y376083D02*
D03*
X103150Y376378D02*
D03*
D62*
X258071Y159941D02*
D03*
X128463Y125068D02*
D03*
Y128119D02*
D03*
X239469Y191043D02*
D03*
X240059Y200098D02*
D03*
X203248Y202756D02*
D03*
X198228Y202559D02*
D03*
X201969Y220571D02*
D03*
X198228Y209941D02*
D03*
X179134Y220571D02*
D03*
X165354Y138583D02*
D03*
X90453Y129528D02*
D03*
X90748Y125000D02*
D03*
X86614Y125098D02*
D03*
X86811Y129626D02*
D03*
X174705Y138476D02*
D03*
X137304Y217225D02*
D03*
X132776Y204233D02*
D03*
X120473Y321261D02*
D03*
X115847D02*
D03*
X115862Y325642D02*
D03*
X115847Y330217D02*
D03*
X227461Y279627D02*
D03*
X270473Y261418D02*
D03*
X192127Y271654D02*
D03*
X240060Y280906D02*
D03*
X232087Y119193D02*
D03*
X292618Y222441D02*
D03*
X286417Y255217D02*
D03*
X85827Y244094D02*
D03*
X69291Y293504D02*
D03*
X251181Y233800D02*
D03*
X261614Y263484D02*
D03*
X152067Y272441D02*
D03*
X180905Y282579D02*
D03*
X170722Y223816D02*
D03*
X120571Y227264D02*
D03*
X170079Y317717D02*
D03*
X144685Y357185D02*
D03*
X121260Y356398D02*
D03*
Y360827D02*
D03*
X125689Y356398D02*
D03*
X130413D02*
D03*
Y360827D02*
D03*
X125689D02*
D03*
X136811Y356299D02*
D03*
X106299Y251969D02*
D03*
X101673Y252067D02*
D03*
Y256594D02*
D03*
X106201Y256496D02*
D03*
Y261122D02*
D03*
X101772Y261221D02*
D03*
X98130Y142224D02*
D03*
Y150492D02*
D03*
X99114Y155315D02*
D03*
X94144D02*
D03*
X89173D02*
D03*
X84203D02*
D03*
X79232D02*
D03*
X137992Y137894D02*
D03*
X134206Y111319D02*
D03*
X134153Y115059D02*
D03*
Y119291D02*
D03*
X121752Y114469D02*
D03*
X129134Y133465D02*
D03*
X122343D02*
D03*
X115748Y135335D02*
D03*
X110531D02*
D03*
X118110Y140650D02*
D03*
Y145571D02*
D03*
Y150492D02*
D03*
D63*
X13061Y201476D02*
X13160Y201575D01*
Y216073D01*
X12697Y201476D02*
X13061D01*
X13160Y216073D02*
X13622Y216535D01*
X16339Y195472D02*
X17323Y194488D01*
X23425D01*
X12697Y195571D02*
X12795Y195472D01*
X16339D01*
X227461Y267224D02*
Y279626D01*
X221358Y261122D02*
X227461Y267224D01*
X106201Y261122D02*
X221358D01*
X13061Y109055D02*
X13160Y109153D01*
X12697Y109055D02*
X13061D01*
X13160Y109153D02*
Y125207D01*
X13622Y125669D01*
X12697Y103150D02*
X13189D01*
X13583Y102756D02*
X23425D01*
X13189Y103150D02*
X13583Y102756D01*
X23524Y125571D02*
X23622Y125669D01*
X23425Y110039D02*
X23524Y110138D01*
Y125571D01*
X189768Y41819D02*
X194193Y37394D01*
X69291Y282776D02*
Y293504D01*
Y282776D02*
X85827Y266240D01*
Y244094D02*
Y266240D01*
X190268Y353681D02*
X193898Y357311D01*
Y376378D01*
X103150Y348721D02*
Y376378D01*
X102854Y348425D02*
X103150Y348721D01*
X43270Y371322D02*
X48031Y376083D01*
X67323D01*
X31496Y370079D02*
X32739Y371322D01*
X43270D01*
X194193Y12402D02*
Y37394D01*
X285236Y12500D02*
Y38504D01*
X285433Y38701D01*
X257382Y240001D02*
Y254035D01*
X251181Y233800D02*
X257382Y240001D01*
Y254035D02*
X261614Y258268D01*
Y263484D01*
X152067Y272441D02*
X152264Y272244D01*
X156988D01*
X167323Y282579D01*
X180905D01*
X135728Y223819D02*
X170866D01*
X132283Y227264D02*
X135728Y223819D01*
X120571Y227264D02*
X132283D01*
X136811Y327559D02*
X146653Y317717D01*
X136811Y327559D02*
Y356299D01*
X146653Y317717D02*
X170079D01*
X153051Y381496D02*
X153144Y381403D01*
X157475D02*
X160335Y378543D01*
Y368012D02*
Y378543D01*
X153144Y381403D02*
X157475D01*
X151181Y363681D02*
X156004D01*
X160335Y368012D01*
X139862Y381496D02*
X153051D01*
X144685Y357185D02*
X151181Y363681D01*
X139862Y375787D02*
X153051D01*
X140256Y359814D02*
Y375394D01*
X139862Y375787D02*
X140256Y375394D01*
X136811Y356299D02*
Y356369D01*
X140256Y359814D01*
D64*
X258071Y159941D02*
Y187894D01*
X23622Y216535D02*
X33169D01*
X232087Y102264D02*
Y119193D01*
X194144Y64321D02*
X232087Y102264D01*
X194144Y38701D02*
Y64321D01*
X258071Y187894D02*
X292618Y222441D01*
X286319Y255315D02*
Y350177D01*
Y255315D02*
X286417Y255217D01*
X285433Y351063D02*
X286319Y350177D01*
D65*
X165354Y118799D02*
Y138583D01*
X161614Y115059D02*
X165354Y118799D01*
X134153Y115059D02*
X161614D01*
X23425Y201772D02*
X23524Y201870D01*
Y216437D01*
X23622Y216535D01*
D68*
X162648Y86221D02*
D03*
X225640Y303543D02*
D03*
X134350D02*
D03*
X71358Y86221D02*
D03*
X316929Y303543D02*
D03*
X253937Y86221D02*
D03*
D69*
X225640Y53858D02*
D03*
X71358Y335906D02*
D03*
X253937D02*
D03*
D70*
X23622Y135669D02*
D03*
X23622Y145669D02*
D03*
Y125669D02*
D03*
Y155669D02*
D03*
X23622Y165669D02*
D03*
X13622Y145669D02*
D03*
Y155669D02*
D03*
Y135669D02*
D03*
Y165669D02*
D03*
X23622Y226535D02*
D03*
X13622D02*
D03*
X23622Y216535D02*
D03*
D71*
X13622Y125669D02*
D03*
X13622Y216535D02*
D03*
D72*
X19685Y276654D02*
D03*
Y266653D02*
D03*
D73*
X31496Y370079D02*
D03*
D74*
Y346457D02*
D03*
D75*
X50000Y358268D02*
D03*
D76*
X334646Y374016D02*
D03*
Y19685D02*
D03*
X19685Y307087D02*
D03*
Y19685D02*
D03*
D78*
X48917Y123425D02*
Y200787D01*
X33169Y216535D02*
X48917Y200787D01*
D87*
X194144Y38701D02*
D03*
Y351063D02*
D03*
X102854D02*
D03*
Y38701D02*
D03*
X285433Y351063D02*
D03*
Y38701D02*
D03*
D88*
X153051Y381496D02*
D03*
X153051Y375787D02*
D03*
X139862Y381496D02*
D03*
X139862Y375787D02*
D03*
D89*
X61024Y111319D02*
X134206D01*
X48917Y123425D02*
X61024Y111319D01*
X194811Y193405D02*
X257961Y130256D01*
X105118Y209941D02*
X121654Y193405D01*
X194811D01*
X105118Y209941D02*
Y235957D01*
X257961Y130256D02*
X257961D01*
X285433Y102783D01*
Y38201D02*
Y102783D01*
X190518Y353431D02*
X277518D01*
X31496Y324016D02*
X40059Y315453D01*
X95669D01*
X102854Y322638D01*
Y348425D01*
X31496Y324016D02*
Y346457D01*
X103268Y41819D02*
X189768D01*
X102768Y42319D02*
X103268Y41819D01*
X277518Y353431D02*
X277768Y353181D01*
X190268Y353681D02*
X190518Y353431D01*
M02*
