G04*
G04 #@! TF.GenerationSoftware,Altium Limited,Altium Designer,21.1.1 (26)*
G04*
G04 Layer_Color=8388736*
%FSLAX25Y25*%
%MOIN*%
G70*
G04*
G04 #@! TF.SameCoordinates,FA9CCD81-432D-44E0-922B-AB4CBE4C0170*
G04*
G04*
G04 #@! TF.FilePolarity,Negative*
G04*
G01*
G75*
%ADD15C,0.00591*%
%ADD35R,0.04724X0.02756*%
%ADD36R,0.05709X0.04134*%
%ADD37R,0.04134X0.05709*%
%ADD38R,0.05118X0.06299*%
%ADD39R,0.06299X0.05118*%
%ADD40R,0.07480X0.04921*%
%ADD41R,0.04934X0.07493*%
%ADD42R,0.03937X0.02953*%
%ADD43R,0.07493X0.04934*%
%ADD44R,0.05918X0.11824*%
G04:AMPARAMS|DCode=45|XSize=69.81mil|YSize=24.14mil|CornerRadius=6.02mil|HoleSize=0mil|Usage=FLASHONLY|Rotation=180.000|XOffset=0mil|YOffset=0mil|HoleType=Round|Shape=RoundedRectangle|*
%AMROUNDEDRECTD45*
21,1,0.06981,0.01211,0,0,180.0*
21,1,0.05778,0.02414,0,0,180.0*
1,1,0.01204,-0.02889,0.00605*
1,1,0.01204,0.02889,0.00605*
1,1,0.01204,0.02889,-0.00605*
1,1,0.01204,-0.02889,-0.00605*
%
%ADD45ROUNDEDRECTD45*%
%ADD46R,0.03556X0.03359*%
%ADD47R,0.03005X0.03517*%
%ADD48R,0.03517X0.03005*%
%ADD49C,0.05394*%
%ADD50R,0.03635X0.07808*%
%ADD51R,0.09461X0.11430*%
%ADD52R,0.17339X0.18953*%
%ADD53C,0.14383*%
%ADD54C,0.10209*%
%ADD55C,0.06706*%
%ADD56R,0.06706X0.06706*%
%ADD57C,0.07887*%
%ADD58O,0.18517X0.09658*%
%ADD59O,0.20485X0.10642*%
%ADD60O,0.09658X0.18517*%
%ADD61C,0.06800*%
%ADD62C,0.02756*%
D15*
X354331Y374016D02*
G03*
X334646Y393701I-19685J0D01*
G01*
Y0D02*
G03*
X354331Y19685I0J19685D01*
G01*
X19685Y393701D02*
G03*
X0Y374016I0J-19685D01*
G01*
X0Y19685D02*
G03*
X19685Y0I19685J0D01*
G01*
X354331Y19685D02*
Y374016D01*
X19685Y0D02*
X334646D01*
X0Y19685D02*
Y374016D01*
X19685Y393701D02*
X334646D01*
D35*
X134449Y131890D02*
D03*
Y128150D02*
D03*
Y124409D02*
D03*
X145079D02*
D03*
Y128150D02*
D03*
Y131890D02*
D03*
D36*
X181791Y125394D02*
D03*
Y132677D02*
D03*
X174114D02*
D03*
Y125394D02*
D03*
X225984Y176575D02*
D03*
X225984Y183858D02*
D03*
X227544Y271548D02*
D03*
Y264265D02*
D03*
X215335Y271548D02*
D03*
Y264265D02*
D03*
X180020Y340354D02*
D03*
Y347638D02*
D03*
X161221Y337697D02*
D03*
Y330413D02*
D03*
X155610Y190650D02*
D03*
Y183366D02*
D03*
X155413Y200197D02*
D03*
X155413Y207480D02*
D03*
X144390Y207480D02*
D03*
Y200197D02*
D03*
X164764Y287303D02*
D03*
Y280020D02*
D03*
X151969Y280020D02*
D03*
X151969Y287303D02*
D03*
X43110Y280026D02*
D03*
Y272743D02*
D03*
D37*
X165354Y130020D02*
D03*
X158071D02*
D03*
X284646Y233169D02*
D03*
X277362D02*
D03*
X284646Y210039D02*
D03*
X277362D02*
D03*
X163681Y317913D02*
D03*
X156398D02*
D03*
X156496Y219291D02*
D03*
X149213Y219291D02*
D03*
X95177Y227264D02*
D03*
X102461Y227264D02*
D03*
X65151Y231791D02*
D03*
X72435Y231791D02*
D03*
Y255315D02*
D03*
X65151D02*
D03*
X284646Y186417D02*
D03*
X277362Y186417D02*
D03*
D38*
X137697Y143602D02*
D03*
X144783D02*
D03*
X110915Y141437D02*
D03*
X103828D02*
D03*
X110915Y149705D02*
D03*
X103828D02*
D03*
X225787Y192224D02*
D03*
X232874D02*
D03*
X232776Y201673D02*
D03*
X225689D02*
D03*
X223130Y245374D02*
D03*
X230217D02*
D03*
X95276Y238090D02*
D03*
X102362D02*
D03*
X119193Y237992D02*
D03*
X126279D02*
D03*
D39*
X122146Y120079D02*
D03*
Y127165D02*
D03*
X263779Y226476D02*
D03*
Y219390D02*
D03*
Y249508D02*
D03*
Y242421D02*
D03*
X251772Y249508D02*
D03*
Y242421D02*
D03*
X240072Y271850D02*
D03*
Y264764D02*
D03*
X203445Y271850D02*
D03*
Y264764D02*
D03*
X161221Y355512D02*
D03*
Y348425D02*
D03*
X263779Y205315D02*
D03*
Y198228D02*
D03*
D40*
X113681Y129528D02*
D03*
Y117717D02*
D03*
X104331Y129528D02*
D03*
Y117717D02*
D03*
D41*
X275197Y221555D02*
D03*
X286417D02*
D03*
X275197Y245177D02*
D03*
X286417D02*
D03*
X275197Y198031D02*
D03*
X286417D02*
D03*
D42*
X297244Y243406D02*
D03*
Y237500D02*
D03*
X297244Y218110D02*
D03*
X297244Y212205D02*
D03*
X297244Y195768D02*
D03*
X297244Y189862D02*
D03*
D43*
X251673Y263484D02*
D03*
Y274704D02*
D03*
D44*
X132087Y257677D02*
D03*
X113189D02*
D03*
D45*
X188110Y198721D02*
D03*
Y201279D02*
D03*
Y203839D02*
D03*
Y206398D02*
D03*
Y208957D02*
D03*
Y211516D02*
D03*
Y214075D02*
D03*
Y216634D02*
D03*
Y219193D02*
D03*
Y221752D02*
D03*
Y224311D02*
D03*
Y226870D02*
D03*
X210709D02*
D03*
Y224311D02*
D03*
Y221752D02*
D03*
Y219193D02*
D03*
Y216634D02*
D03*
Y214075D02*
D03*
Y211516D02*
D03*
Y208957D02*
D03*
Y206398D02*
D03*
Y203839D02*
D03*
Y201279D02*
D03*
Y198721D02*
D03*
D46*
X132687Y287815D02*
D03*
X132687Y277421D02*
D03*
Y272224D02*
D03*
Y282618D02*
D03*
X111014Y287815D02*
D03*
Y282618D02*
D03*
Y272224D02*
D03*
Y277421D02*
D03*
X74083Y287815D02*
D03*
X74083Y282618D02*
D03*
Y277421D02*
D03*
Y272224D02*
D03*
X95756Y287815D02*
D03*
Y282618D02*
D03*
X95756Y277421D02*
D03*
Y272224D02*
D03*
D47*
X63406Y243110D02*
D03*
X73012D02*
D03*
D48*
X56299Y281772D02*
D03*
Y272165D02*
D03*
D49*
X117913Y218012D02*
D03*
X194980Y183366D02*
D03*
X187697Y253248D02*
D03*
X270669Y274410D02*
D03*
D50*
X141260Y347500D02*
D03*
X136260D02*
D03*
X131260D02*
D03*
X126260D02*
D03*
X141260Y329075D02*
D03*
X136260D02*
D03*
X131260D02*
D03*
X126260D02*
D03*
D51*
X80709Y146063D02*
D03*
Y125984D02*
D03*
D52*
X120482Y280020D02*
D03*
X86288Y280020D02*
D03*
D53*
X162648Y86221D02*
D03*
X225640Y303543D02*
D03*
X134350D02*
D03*
X71358Y86221D02*
D03*
X316929Y303543D02*
D03*
X253937Y86221D02*
D03*
D54*
X225640Y53858D02*
D03*
X71358Y335906D02*
D03*
X253937D02*
D03*
D55*
X23622Y135669D02*
D03*
X23622Y145669D02*
D03*
Y125669D02*
D03*
Y155669D02*
D03*
X23622Y165669D02*
D03*
X13622Y145669D02*
D03*
Y155669D02*
D03*
Y135669D02*
D03*
Y165669D02*
D03*
X23622Y226535D02*
D03*
X13622D02*
D03*
X23622Y216535D02*
D03*
D56*
X13622Y125669D02*
D03*
X13622Y216535D02*
D03*
D57*
X19685Y276654D02*
D03*
Y266653D02*
D03*
D58*
X31496Y370079D02*
D03*
D59*
Y346457D02*
D03*
D60*
X50000Y358268D02*
D03*
D61*
X334646Y374016D02*
D03*
Y19685D02*
D03*
X19685Y307087D02*
D03*
Y19685D02*
D03*
D62*
X258071Y159941D02*
D03*
X128463Y125068D02*
D03*
Y128119D02*
D03*
X239469Y191043D02*
D03*
X240059Y200098D02*
D03*
X203248Y202756D02*
D03*
X198228Y202559D02*
D03*
X201969Y220571D02*
D03*
X198228Y209941D02*
D03*
X179134Y220571D02*
D03*
X165354Y138583D02*
D03*
X90453Y129528D02*
D03*
X90748Y125000D02*
D03*
X86614Y125098D02*
D03*
X86811Y129626D02*
D03*
X174705Y138476D02*
D03*
X137304Y217225D02*
D03*
X132776Y204233D02*
D03*
X120473Y321261D02*
D03*
X115847D02*
D03*
X115862Y325642D02*
D03*
X115847Y330217D02*
D03*
X227461Y279627D02*
D03*
X270473Y261418D02*
D03*
X192127Y271654D02*
D03*
X240060Y280906D02*
D03*
X232087Y119193D02*
D03*
X292618Y222441D02*
D03*
X286417Y255217D02*
D03*
X85827Y244094D02*
D03*
X69291Y293504D02*
D03*
X251181Y233800D02*
D03*
X261614Y263484D02*
D03*
X152067Y272441D02*
D03*
X180905Y282579D02*
D03*
X170722Y223816D02*
D03*
X120571Y227264D02*
D03*
X170079Y317717D02*
D03*
X144685Y357185D02*
D03*
X121260Y356398D02*
D03*
Y360827D02*
D03*
X125689Y356398D02*
D03*
X130413D02*
D03*
Y360827D02*
D03*
X125689D02*
D03*
X136811Y356299D02*
D03*
X106299Y251969D02*
D03*
X101673Y252067D02*
D03*
Y256594D02*
D03*
X106201Y256496D02*
D03*
Y261122D02*
D03*
X101772Y261221D02*
D03*
X98130Y142224D02*
D03*
Y150492D02*
D03*
X99114Y155315D02*
D03*
X94144D02*
D03*
X89173D02*
D03*
X84203D02*
D03*
X79232D02*
D03*
X137992Y137894D02*
D03*
X134206Y111319D02*
D03*
X134153Y115059D02*
D03*
Y119291D02*
D03*
X121752Y114469D02*
D03*
X129134Y133465D02*
D03*
X122343D02*
D03*
X115748Y135335D02*
D03*
X110531D02*
D03*
X118110Y140650D02*
D03*
Y145571D02*
D03*
Y150492D02*
D03*
M02*
