G04*
G04 #@! TF.GenerationSoftware,Altium Limited,Altium Designer,21.1.1 (26)*
G04*
G04 Layer_Color=32896*
%FSLAX25Y25*%
%MOIN*%
G70*
G04*
G04 #@! TF.SameCoordinates,8D04B9CC-E963-441F-A638-D17954596142*
G04*
G04*
G04 #@! TF.FilePolarity,Positive*
G04*
G01*
G75*
%ADD10C,0.00787*%
%ADD11C,0.00984*%
%ADD13C,0.01575*%
%ADD14C,0.00500*%
%ADD16C,0.00591*%
D10*
X147884Y372933D02*
G03*
X145029Y372933I-1427J0D01*
G01*
X143209D02*
X145029D01*
X147884D02*
X149705D01*
Y384350D01*
X143209D02*
X149705D01*
X143209Y372933D02*
Y384350D01*
X9941Y111319D02*
X13780D01*
X15453D01*
X8622Y120669D02*
Y170669D01*
X28622Y170669D01*
X8622Y120669D02*
X28622D01*
Y170669D01*
X8622Y211535D02*
Y231535D01*
X28622D01*
X8622Y211535D02*
X28622D01*
X28622Y231535D02*
X28622Y211535D01*
X13780Y203740D02*
X15453D01*
X9941D02*
X13780D01*
X19783Y191634D02*
X22638D01*
X19783D02*
Y196752D01*
X22638Y191634D02*
X27067D01*
Y196752D01*
X24213Y204626D02*
X27067D01*
Y199508D02*
Y204626D01*
X19783D02*
X24213D01*
X19783Y199508D02*
Y204626D01*
Y99902D02*
X22638D01*
X19783D02*
Y105020D01*
X22638Y99902D02*
X27067D01*
Y105020D01*
X19783Y107776D02*
Y112894D01*
X24213D01*
X27067Y107776D02*
Y112894D01*
X24213D02*
X27067D01*
D11*
X38583Y324508D02*
X43502D01*
Y326968D01*
X42682Y327788D01*
X41043D01*
X40223Y326968D01*
Y324508D01*
X41043Y329428D02*
Y332707D01*
X42682Y331067D02*
X39403D01*
X56595Y371752D02*
X61514D01*
Y374212D01*
X60694Y375032D01*
X59054D01*
X58234Y374212D01*
Y371752D01*
X59054Y376672D02*
Y379951D01*
X84547Y368602D02*
Y370242D01*
Y369422D01*
X89467D01*
X88647Y368602D01*
X84547Y372702D02*
Y374342D01*
Y373522D01*
X89467D01*
X88647Y372702D01*
X84547Y376802D02*
X85367D01*
Y377622D01*
X84547D01*
Y376802D01*
Y380902D02*
Y382541D01*
Y381721D01*
X89467D01*
X88647Y380902D01*
X89467Y385001D02*
X86187D01*
X84547Y386641D01*
X86187Y388281D01*
X89467D01*
X177557Y6791D02*
Y10071D01*
X176737D01*
X173458Y6791D01*
X172638D01*
Y11711D02*
X173458D01*
Y12531D01*
X172638D01*
Y11711D01*
Y18271D02*
X177557D01*
X175098Y15811D01*
Y19091D01*
X177557Y20730D02*
X174278D01*
X172638Y22370D01*
X174278Y24010D01*
X177557D01*
X218470Y367323D02*
X219290Y368143D01*
Y369783D01*
X218470Y370603D01*
X217650D01*
X216830Y369783D01*
Y368963D01*
Y369783D01*
X216010Y370603D01*
X215190D01*
X214370Y369783D01*
Y368143D01*
X215190Y367323D01*
X214370Y372242D02*
X215190D01*
Y373062D01*
X214370D01*
Y372242D01*
X219290Y376342D02*
Y379622D01*
X218470D01*
X215190Y376342D01*
X214370D01*
X219290Y381262D02*
X216010D01*
X214370Y382902D01*
X216010Y384542D01*
X219290D01*
X298588Y10433D02*
X299408Y11253D01*
Y12893D01*
X298588Y13713D01*
X295308D01*
X294488Y12893D01*
Y11253D01*
X295308Y10433D01*
X298588D01*
X299408Y15353D02*
X296128D01*
X294488Y16993D01*
X296128Y18632D01*
X299408D01*
X19783Y251772D02*
Y255183D01*
X19816Y288189D02*
Y291600D01*
X21521Y289895D02*
X18110D01*
D13*
X32283Y338583D02*
G03*
X32283Y338583I-787J0D01*
G01*
X10925Y279035D02*
G03*
X10925Y279035I-787J0D01*
G01*
D14*
X49213Y368307D02*
Y400394D01*
X41535Y343701D02*
X49213D01*
Y348228D01*
X13780Y343701D02*
X21063D01*
X13780D02*
Y400394D01*
X49213D01*
X62205Y43209D02*
X88878D01*
X116831D02*
X143504D01*
X62205Y346555D02*
X88878D01*
X116831D02*
X143504D01*
Y43209D02*
Y346555D01*
X62205Y43209D02*
Y346555D01*
X87106Y24606D02*
Y28543D01*
X85138Y361221D02*
Y365158D01*
X83169Y363189D02*
X87106D01*
X265748D02*
X269685D01*
X267717Y361221D02*
Y365158D01*
X269685Y24606D02*
Y28543D01*
X244783Y43209D02*
Y346555D01*
X326083Y43209D02*
Y346555D01*
X299410D02*
X326083D01*
X244783D02*
X271457D01*
X299410Y43209D02*
X326083D01*
X244783D02*
X271457D01*
X209892Y26575D02*
X213829D01*
X211860Y24606D02*
Y28543D01*
X209892Y361221D02*
Y365158D01*
X234793Y43209D02*
Y346555D01*
X153494Y43209D02*
Y346555D01*
Y43209D02*
X180167D01*
X208120D02*
X234793D01*
X153494Y346555D02*
X180167D01*
X208120D02*
X234793D01*
D16*
X7087Y282441D02*
X32677D01*
X7087Y260866D02*
X32677D01*
X7087D02*
Y282441D01*
X32677Y260866D02*
Y282441D01*
X117224Y377659D02*
X116174D01*
X115650Y378183D01*
Y380282D01*
X116174Y380807D01*
X117224D01*
X117749Y380282D01*
Y378183D01*
X117224Y377659D01*
X118798Y380807D02*
Y377659D01*
X120897Y380807D01*
Y377659D01*
X121947Y380807D02*
X124046Y378708D01*
X126670Y377659D02*
X125620D01*
X125095Y378183D01*
Y380282D01*
X125620Y380807D01*
X126670D01*
X127194Y380282D01*
Y378183D01*
X126670Y377659D01*
X130343D02*
X128244D01*
Y379233D01*
X129294D01*
X128244D01*
Y380807D01*
X133492Y377659D02*
X131393D01*
Y379233D01*
X132442D01*
X131393D01*
Y380807D01*
X23384Y173522D02*
Y175621D01*
X24434Y174572D02*
X22335D01*
X24959Y178770D02*
Y176671D01*
X23384D01*
X23909Y177721D01*
Y178245D01*
X23384Y178770D01*
X22335D01*
X21810Y178245D01*
Y177196D01*
X22335Y176671D01*
X24959Y179820D02*
X22860D01*
X21810Y180869D01*
X22860Y181919D01*
X24959D01*
X14493Y175621D02*
X15018Y175097D01*
Y174047D01*
X14493Y173522D01*
X12394D01*
X11869Y174047D01*
Y175097D01*
X12394Y175621D01*
X13443D01*
Y174572D01*
X11869Y176671D02*
X15018D01*
X11869Y178770D01*
X15018D01*
Y179820D02*
X11869D01*
Y181394D01*
X12394Y181919D01*
X14493D01*
X15018Y181394D01*
Y179820D01*
X14632Y236745D02*
X15157Y236220D01*
Y235170D01*
X14632Y234646D01*
X12533D01*
X12008Y235170D01*
Y236220D01*
X12533Y236745D01*
X13582D01*
Y235695D01*
X12008Y237794D02*
X15157D01*
X12008Y239893D01*
X15157D01*
Y240943D02*
X12008D01*
Y242517D01*
X12533Y243042D01*
X14632D01*
X15157Y242517D01*
Y240943D01*
X23523Y234646D02*
Y236745D01*
X24573Y235695D02*
X22474D01*
X21949Y237794D02*
Y238844D01*
Y238319D01*
X25097D01*
X24573Y237794D01*
X21949Y242517D02*
Y240418D01*
X24048Y242517D01*
X24573D01*
X25097Y241992D01*
Y240943D01*
X24573Y240418D01*
X25097Y243567D02*
X22998D01*
X21949Y244616D01*
X22998Y245666D01*
X25097D01*
X41797Y256823D02*
X42322Y256299D01*
Y255249D01*
X41797Y254724D01*
X39698D01*
X39173Y255249D01*
Y256299D01*
X39698Y256823D01*
X40747D01*
Y255774D01*
X39173Y257873D02*
X42322D01*
X39173Y259972D01*
X42322D01*
Y261022D02*
X39173D01*
Y262596D01*
X39698Y263121D01*
X41797D01*
X42322Y262596D01*
Y261022D01*
X40747Y279232D02*
Y281331D01*
X41797Y280282D02*
X39698D01*
X39173Y282381D02*
Y283430D01*
Y282906D01*
X42322D01*
X41797Y282381D01*
X39173Y287104D02*
Y285005D01*
X41272Y287104D01*
X41797D01*
X42322Y286579D01*
Y285529D01*
X41797Y285005D01*
X42322Y288153D02*
X40223D01*
X39173Y289203D01*
X40223Y290252D01*
X42322D01*
X21949Y88715D02*
X25098D01*
Y90290D01*
X24573Y90814D01*
X23524D01*
X22999Y90290D01*
Y88715D01*
Y89765D02*
X21949Y90814D01*
Y93963D02*
Y91864D01*
X24048Y93963D01*
X24573D01*
X25098Y93438D01*
Y92389D01*
X24573Y91864D01*
X25098Y97111D02*
X24573Y96062D01*
X23524Y95012D01*
X22474D01*
X21949Y95537D01*
Y96587D01*
X22474Y97111D01*
X22999D01*
X23524Y96587D01*
Y95012D01*
X36615Y194096D02*
X39763D01*
Y195670D01*
X39239Y196195D01*
X38189D01*
X37664Y195670D01*
Y194096D01*
Y195145D02*
X36615Y196195D01*
Y197244D02*
Y198294D01*
Y197769D01*
X39763D01*
X39239Y197244D01*
X39763Y199868D02*
Y201967D01*
X39239D01*
X37139Y199868D01*
X36615D01*
X14173Y88715D02*
X11024D01*
Y90290D01*
X11549Y90814D01*
X13648D01*
X14173Y90290D01*
Y88715D01*
X13648Y93963D02*
X14173Y93438D01*
Y92389D01*
X13648Y91864D01*
X13123D01*
X12598Y92389D01*
Y93438D01*
X12074Y93963D01*
X11549D01*
X11024Y93438D01*
Y92389D01*
X11549Y91864D01*
X14173Y95012D02*
Y97111D01*
X13648D01*
X11549Y95012D01*
X11024D01*
X33366Y193932D02*
X30217D01*
Y195506D01*
X30742Y196031D01*
X32841D01*
X33366Y195506D01*
Y193932D01*
X32841Y199179D02*
X33366Y198655D01*
Y197605D01*
X32841Y197080D01*
X32316D01*
X31791Y197605D01*
Y198655D01*
X31267Y199179D01*
X30742D01*
X30217Y198655D01*
Y197605D01*
X30742Y197080D01*
X30217Y201803D02*
X33366D01*
X31791Y200229D01*
Y202328D01*
X354331Y374016D02*
G03*
X334646Y393701I-19685J0D01*
G01*
Y0D02*
G03*
X354331Y19685I0J19685D01*
G01*
X19685Y393701D02*
G03*
X0Y374016I0J-19685D01*
G01*
X0Y19685D02*
G03*
X19685Y0I19685J0D01*
G01*
X354331Y19685D02*
Y374016D01*
X19685Y0D02*
X334646D01*
X0Y19685D02*
Y374016D01*
X19685Y393701D02*
X334646D01*
M02*
