G04*
G04 #@! TF.GenerationSoftware,Altium Limited,Altium Designer,21.1.1 (26)*
G04*
G04 Layer_Physical_Order=3*
G04 Layer_Color=128*
%FSLAX25Y25*%
%MOIN*%
G70*
G04*
G04 #@! TF.SameCoordinates,FA9CCD81-432D-44E0-922B-AB4CBE4C0170*
G04*
G04*
G04 #@! TF.FilePolarity,Negative*
G04*
G01*
G75*
%ADD15C,0.00591*%
%ADD64C,0.03937*%
%ADD70C,0.05906*%
%ADD77C,0.04000*%
%ADD78C,0.07874*%
%ADD79C,0.15945*%
%ADD80C,0.11772*%
%ADD81C,0.06693*%
%ADD82R,0.14173X0.06299*%
%ADD83R,0.16142X0.06299*%
%ADD84C,0.14961*%
%ADD85C,0.03937*%
%ADD86R,0.06299X0.14173*%
D15*
X354331Y374016D02*
G03*
X334646Y393701I-19685J0D01*
G01*
Y0D02*
G03*
X354331Y19685I0J19685D01*
G01*
X19685Y393701D02*
G03*
X0Y374016I0J-19685D01*
G01*
X0Y19685D02*
G03*
X19685Y0I19685J0D01*
G01*
X354331Y19685D02*
Y374016D01*
X19685Y0D02*
X334646D01*
X0Y19685D02*
Y374016D01*
X19685Y393701D02*
X334646D01*
D64*
X13780Y175098D02*
X66240D01*
X73819Y167520D01*
X98Y175098D02*
X13780D01*
X98Y116535D02*
Y175098D01*
Y116535D02*
X32677D01*
X44094Y127953D01*
X102264D01*
X110531Y136221D01*
Y162008D01*
X105020Y167520D02*
X110531Y162008D01*
X73819Y167520D02*
X105020D01*
D70*
X13622Y145669D02*
D03*
Y155669D02*
D03*
Y125669D02*
D03*
Y135669D02*
D03*
Y165669D02*
D03*
X13622Y226535D02*
D03*
Y216535D02*
D03*
D77*
X19685Y393701D02*
G03*
X0Y374016I0J-19685D01*
G01*
X354331D02*
G03*
X334646Y393701I-19685J0D01*
G01*
Y0D02*
G03*
X354331Y19685I0J19685D01*
G01*
X0D02*
G03*
X19685Y0I19685J0D01*
G01*
X0Y19685D02*
Y374016D01*
X0D01*
X19685Y393701D02*
X334646D01*
X354331Y374016D02*
X354331D01*
Y19685D02*
Y374016D01*
X334646Y0D02*
Y0D01*
X19685Y0D02*
X334646D01*
X19685D02*
Y0D01*
D78*
X1969Y180020D02*
X63090D01*
Y189469D01*
X67421Y193799D01*
Y269094D01*
X88583Y290256D01*
X142717D01*
X166437Y313976D01*
Y391732D01*
D79*
X162648Y86221D02*
D03*
X225640Y303543D02*
D03*
X134350D02*
D03*
X71358Y86221D02*
D03*
X316929Y303543D02*
D03*
X253937Y86221D02*
D03*
D80*
X225640Y53858D02*
D03*
X71358Y335906D02*
D03*
X253937D02*
D03*
D81*
X19685Y266653D02*
D03*
D82*
X31496Y370079D02*
D03*
D83*
Y346457D02*
D03*
D84*
X334646Y374016D02*
D03*
Y19685D02*
D03*
X19685Y307087D02*
D03*
Y19685D02*
D03*
D85*
X258071Y159941D02*
D03*
X128463Y125068D02*
D03*
Y128119D02*
D03*
X239469Y191043D02*
D03*
X240059Y200098D02*
D03*
X203248Y202756D02*
D03*
X198228Y202559D02*
D03*
X201969Y220571D02*
D03*
X198228Y209941D02*
D03*
X179134Y220571D02*
D03*
X90453Y129528D02*
D03*
X90748Y125000D02*
D03*
X86614Y125098D02*
D03*
X86811Y129626D02*
D03*
X174705Y138476D02*
D03*
X137304Y217225D02*
D03*
X132776Y204233D02*
D03*
X227461Y279627D02*
D03*
X270473Y261418D02*
D03*
X192127Y271654D02*
D03*
X240060Y280906D02*
D03*
X232087Y119193D02*
D03*
X292618Y222441D02*
D03*
X286417Y255217D02*
D03*
X85827Y244094D02*
D03*
X69291Y293504D02*
D03*
X251181Y233800D02*
D03*
X261614Y263484D02*
D03*
X152067Y272441D02*
D03*
X180905Y282579D02*
D03*
X170722Y223816D02*
D03*
X120571Y227264D02*
D03*
X170079Y317717D02*
D03*
X144685Y357185D02*
D03*
X121260Y356398D02*
D03*
Y360827D02*
D03*
X125689Y356398D02*
D03*
X130413D02*
D03*
Y360827D02*
D03*
X125689D02*
D03*
X136811Y356299D02*
D03*
X106299Y251969D02*
D03*
X101673Y252067D02*
D03*
Y256594D02*
D03*
X106201Y256496D02*
D03*
Y261122D02*
D03*
X101772Y261221D02*
D03*
X137992Y137894D02*
D03*
X129134Y133465D02*
D03*
X122343D02*
D03*
X115748Y135335D02*
D03*
X110531D02*
D03*
X118110Y140650D02*
D03*
Y145571D02*
D03*
Y150492D02*
D03*
D86*
X50000Y358268D02*
D03*
M02*
