M48
;Layer_Color=9474304
;FILE_FORMAT=2:5
INCH,LZ
;TYPE=PLATED
T1F00S00C0.01575
T2F00S00C0.03543
T4F00S00C0.04331
;TYPE=NON_PLATED
T5F00S00C0.09409
T6F00S00C0.12598
T7F00S00C0.13583
%
T01
X0232087Y0119193
X0258071Y0159941
X0239469Y0191043
X0240059Y0200098
X0203248Y0202756
X0198228Y0202559
Y0209941
X0132776Y0204233
X011811Y0150492
Y0145571
Y014065
X0115748Y0135335
X0110531
X0122343Y0133465
X0129134
X0128463Y0128119
Y0125068
X0134153Y0119291
Y0115059
X0134206Y0111319
X0121752Y0114469
X0137992Y0137894
X0165354Y0138583
X0174705Y0138476
X009813Y0142224
Y0150492
X0099114Y0155315
X0094144
X0089173
X0084203
X0079232
X0086811Y0129626
X0090453Y0129528
X0090748Y0125
X0086614Y0125098
X0085827Y0244094
X0101673Y0252067
Y0256594
X0106201Y0256496
X0106299Y0251969
X0106201Y0261122
X0101772Y0261221
X0120571Y0227264
X0137304Y0217225
X0170722Y0223816
X0179134Y0220571
X0201969
X0192127Y0271654
X0180905Y0282579
X0152067Y0272441
X0170079Y0317717
X0120473Y0321261
X0115847
X0115862Y0325642
X0115847Y0330217
X012126Y0356398
Y0360827
X0125689
Y0356398
X0130413
Y0360827
X0136811Y0356299
X0144685Y0357185
X0069291Y0293504
X0227461Y0279627
X024006Y0280906
X0261614Y0263484
X0270473Y0261418
X0286417Y0255217
X0292618Y0222441
X0251181Y02338
T02
X0013622Y0125669
X0023622
X0023622Y0135669
X0023622Y0145669
Y0155669
X0013622
Y0145669
Y0135669
Y0165669
X0023622
Y0216535
Y0226535
X0013622
Y0216535
T04
X0019685Y0266653
Y0276654
T05
X022564Y0053858
X0071358Y0335906
X0253937
T06
X0019685Y0019685
X0334646
X0019685Y0307087
X0334646Y0374016
T07
X0253937Y0086221
X0162648
X0071358
X013435Y0303543
X022564
X0316929
M30
